<svg width="47.000000" height="36.000000" viewBox="0 0 47 36" fill="none" xmlns="http://www.w3.org/2000/svg" xmlns:xlink="http://www.w3.org/1999/xlink">
	<desc>
			Created with Pixso.
	</desc>
	<defs>
		<clipPath id="clip117_36703">
			<rect id="visa" rx="-0.500000" width="26.000000" height="15.000000" transform="translate(10.500000 10.500000)" fill="white" fill-opacity="0"/>
		</clipPath>
	</defs>
	<rect id="Frame 73668" rx="3.500000" width="46.000000" height="35.000000" transform="translate(0.500000 0.500000)" fill="#F4F6F9" fill-opacity="0.150000"/>
	<rect id="visa" rx="-0.500000" width="26.000000" height="15.000000" transform="translate(10.500000 10.500000)" fill="#FFFFFF" fill-opacity="0"/>
	<g clip-path="url(#clip117_36703)">
		<path id="Vector" d="M28.79 25.81L20.82 25.81L20.82 10.95L28.79 10.95L28.79 25.81Z" fill="#B1B4B9" fill-opacity="1.000000" fill-rule="nonzero"/>
		<path id="Vector" d="M20.43 18C20.43 15.44 21.62 13.17 23.47 11.71C22.11 10.63 20.41 10 18.55 10C14.15 10 10.59 13.58 10.59 18C10.59 22.41 14.15 26 18.55 26C20.41 26 22.11 25.36 23.47 24.28C21.62 22.82 20.43 20.55 20.43 18Z" fill="#F5F3F0" fill-opacity="1.000000" fill-rule="nonzero"/>
		<path id="Vector" d="M36.34 18C36.34 22.41 32.78 26 28.38 26C26.52 26 24.82 25.36 23.46 24.28C25.31 22.82 26.5 20.55 26.5 18C26.5 15.44 25.31 13.17 23.46 11.71C24.82 10.63 26.52 10 28.38 10C32.78 10 36.34 13.58 36.34 18Z" fill="#7A7A7E" fill-opacity="1.000000" fill-rule="nonzero"/>
	</g>
</svg>
