<svg width="20.000000" height="20.000000" viewBox="0 0 20 20" fill="none" xmlns="http://www.w3.org/2000/svg" xmlns:xlink="http://www.w3.org/1999/xlink">
	<desc>
			Created with Pixso.
	</desc>
	<defs>
		<clipPath id="clip117_36766">
			<rect id="Comment / Light / Solid" rx="-0.500000" width="19.000000" height="19.000000" transform="translate(0.500000 0.500000)" fill="white" fill-opacity="0"/>
		</clipPath>
	</defs>
	<g clip-path="url(#clip117_36766)">
		<path id="Shape" d="M1.97 4.72C2.22 3.32 3.33 2.28 4.74 2.07C6.09 1.86 7.94 1.66 10 1.66C12.05 1.66 13.9 1.86 15.25 2.07C16.66 2.28 17.77 3.32 18.02 4.72C18.18 5.7 18.33 6.94 18.33 8.33C18.33 9.72 18.18 10.96 18.02 11.94C17.77 13.34 16.66 14.37 15.25 14.59C14.01 14.78 12.36 14.96 10.52 14.99L5.42 18C4.86 18.33 4.16 17.93 4.16 17.28L4.16 14.45C3.03 14.07 2.18 13.14 1.97 11.94C1.81 10.96 1.66 9.72 1.66 8.33C1.66 6.94 1.81 5.7 1.97 4.72ZM5 6.66C5 6.2 5.37 5.83 5.83 5.83L14.16 5.83C14.62 5.83 15 6.2 15 6.66C15 7.12 14.62 7.5 14.16 7.5L5.83 7.5C5.37 7.5 5 7.12 5 6.66ZM5 10C5 9.53 5.37 9.16 5.83 9.16L9.16 9.16C9.62 9.16 10 9.53 10 10C10 10.46 9.62 10.83 9.16 10.83L5.83 10.83C5.37 10.83 5 10.46 5 10Z" fill="#FFFFFF" fill-opacity="1.000000" fill-rule="evenodd"/>
	</g>
</svg>
