<svg width="67.000000" height="36.000000" viewBox="0 0 67 36" fill="none" xmlns="http://www.w3.org/2000/svg" xmlns:xlink="http://www.w3.org/1999/xlink">
	<desc>
			Created with Pixso.
	</desc>
	<defs>
		<clipPath id="clip117_36696">
			<rect id="mastercard" rx="-0.500000" width="46.000000" height="15.000000" transform="translate(10.500000 10.500000)" fill="white" fill-opacity="0"/>
		</clipPath>
	</defs>
	<rect id="Frame 73667" rx="3.500000" width="66.000000" height="35.000000" transform="translate(0.500000 0.500000)" fill="#F4F6F9" fill-opacity="0.150000"/>
	<rect id="mastercard" rx="-0.500000" width="46.000000" height="15.000000" transform="translate(10.500000 10.500000)" fill="#FFFFFF" fill-opacity="0"/>
	<g clip-path="url(#clip117_36696)">
		<path id="Vector" d="M30.2 25.73L26.42 25.73L28.78 11.09L32.56 11.09L30.2 25.73Z" fill="#FFFFFF" fill-opacity="1.000000" fill-rule="nonzero"/>
		<path id="Vector" d="M43.89 11.44C43.14 11.15 41.96 10.82 40.5 10.82C36.77 10.82 34.14 12.81 34.13 15.66C34.1 17.77 36.01 18.93 37.44 19.63C38.9 20.35 39.4 20.82 39.4 21.46C39.38 22.44 38.22 22.89 37.13 22.89C35.62 22.89 34.81 22.66 33.58 22.11L33.09 21.88L32.56 25.16C33.44 25.57 35.08 25.93 36.77 25.94C40.73 25.94 43.31 23.98 43.34 20.94C43.36 19.28 42.35 18 40.17 16.96C38.85 16.29 38.04 15.84 38.04 15.15C38.06 14.53 38.73 13.89 40.22 13.89C41.45 13.86 42.35 14.15 43.03 14.45L43.37 14.6L43.89 11.44Z" fill="#FFFFFF" fill-opacity="1.000000" fill-rule="nonzero"/>
		<path id="Vector" d="M48.91 20.54C49.22 19.7 50.41 16.44 50.41 16.44C50.4 16.47 50.72 15.59 50.91 15.04L51.17 16.3C51.17 16.3 51.89 19.81 52.05 20.54C51.46 20.54 49.65 20.54 48.91 20.54ZM53.57 11.09L50.65 11.09C49.75 11.09 49.06 11.35 48.67 12.3L43.06 25.73L47.03 25.73C47.03 25.73 47.68 23.92 47.82 23.53C48.25 23.53 52.11 23.53 52.67 23.53C52.78 24.04 53.12 25.73 53.12 25.73L56.61 25.73L53.57 11.09Z" fill="#FFFFFF" fill-opacity="1.000000" fill-rule="nonzero"/>
		<path id="Vector" d="M23.27 11.09L19.57 21.07L19.16 19.04C18.48 16.71 16.34 14.17 13.94 12.91L17.33 25.71L21.32 25.71L27.26 11.09L23.27 11.09Z" fill="#FFFFFF" fill-opacity="1.000000" fill-rule="nonzero"/>
		<path id="Vector" d="M16.13 11.09L10.06 11.09L10 11.38C14.73 12.6 17.87 15.52 19.16 19.04L17.84 12.32C17.62 11.38 16.96 11.12 16.13 11.09Z" fill="#B1B4B9" fill-opacity="1.000000" fill-rule="nonzero"/>
	</g>
</svg>
