<svg width="11.273438" height="22.289062" viewBox="0 0 11.2734 22.2891" fill="none" xmlns="http://www.w3.org/2000/svg" xmlns:xlink="http://www.w3.org/1999/xlink">
	<desc>
			Created with Pixso.
	</desc>
	<defs/>
	<path id="$" d="M8.14 14.19Q8.42 14.7 8.42 15.36Q8.42 16.08 8.1 16.61Q7.95 16.86 7.72 17.07Q7.03 17.71 5.69 17.71Q4.59 17.71 3.89 17.18Q3.73 17.06 3.59 16.91Q3.58 16.89 3.57 16.88Q2.84 16.08 2.84 14.62L0 14.62Q0 16.68 0.98 18.01Q1.1 18.19 1.24 18.35Q1.38 18.5 1.54 18.65Q2.75 19.78 4.81 20.01L4.81 22.28L6.67 22.28L6.67 20Q8.75 19.79 9.95 18.65Q10 18.6 10.06 18.55Q10.38 18.21 10.62 17.83Q11.27 16.78 11.27 15.33Q11.27 14.28 10.95 13.5Q10.78 13.07 10.53 12.7Q10.32 12.38 10.05 12.11Q9.46 11.5 8.61 11.03Q7.75 10.57 6.25 10.01Q4.75 9.46 4.13 8.85Q3.96 8.69 3.84 8.5Q3.5 7.97 3.5 7.21Q3.5 6.21 3.99 5.62Q4.06 5.54 4.13 5.47Q4.19 5.41 4.26 5.35Q4.87 4.86 5.89 4.86Q6.54 4.86 7.03 5.13Q7.4 5.34 7.69 5.71Q8.35 6.56 8.35 8.03L11.19 8.03Q11.19 5.74 10.08 4.31Q10.07 4.3 10.07 4.3Q9.76 3.9 9.37 3.58Q8.39 2.78 6.92 2.57L6.92 0L5.05 0L5.05 2.55Q3.34 2.75 2.23 3.66Q2.02 3.84 1.83 4.04Q1.5 4.39 1.26 4.81Q0.65 5.84 0.65 7.24Q0.65 8.47 1.15 9.44Q1.82 10.74 3.38 11.57Q4.2 12.02 5.68 12.54Q7.16 13.06 7.79 13.71Q8 13.93 8.14 14.19Z" fill="#5946D7" fill-opacity="1.000000" fill-rule="evenodd"/>
</svg>
