<svg width="24.000000" height="24.000000" viewBox="0 0 24 24" fill="none" xmlns="http://www.w3.org/2000/svg" xmlns:xlink="http://www.w3.org/1999/xlink">
	<desc>
			Created with Pixso.
	</desc>
	<defs/>
	<path id="Path" d="M17.79 15.43C17.2 14.85 16.25 14.85 15.67 15.43L14.74 16.35C14.54 16.56 14.23 16.63 13.96 16.51C12.62 15.93 11.3 15.04 10.13 13.86C8.95 12.69 8.07 11.38 7.49 10.05C7.36 9.77 7.43 9.45 7.65 9.23L8.47 8.41C9.14 7.74 9.14 6.79 8.56 6.2L7.39 5.03C6.6 4.25 5.34 4.25 4.56 5.03L3.91 5.68C3.16 6.42 2.85 7.49 3.06 8.55C3.55 11.16 5.07 14.03 7.52 16.47C9.97 18.92 12.83 20.44 15.44 20.93C16.5 21.14 17.57 20.83 18.31 20.09L18.96 19.43C19.74 18.65 19.74 17.39 18.96 16.61L17.79 15.43Z" stroke="#2E1066" stroke-opacity="0" stroke-width="1.500000" stroke-linejoin="round"/>
	<path id="Path" d="M17.79 15.43C17.2 14.85 16.25 14.85 15.67 15.43L14.74 16.35C14.54 16.56 14.23 16.63 13.96 16.51C12.62 15.93 11.3 15.04 10.13 13.86C8.95 12.69 8.07 11.38 7.49 10.05C7.36 9.77 7.43 9.45 7.65 9.23L8.47 8.41C9.14 7.74 9.14 6.79 8.56 6.2L7.39 5.03C6.6 4.25 5.34 4.25 4.56 5.03L3.91 5.68C3.16 6.42 2.85 7.49 3.06 8.55C3.55 11.16 5.07 14.03 7.52 16.47C9.97 18.92 12.83 20.44 15.44 20.93C16.5 21.14 17.57 20.83 18.31 20.09L18.96 19.43C19.74 18.65 19.74 17.39 18.96 16.61L17.79 15.43Z" stroke="#410F9E" stroke-opacity="0" stroke-width="1.500000" stroke-linejoin="round"/>
	<path id="Path" d="M17.79 15.43C17.2 14.85 16.25 14.85 15.67 15.43L14.74 16.35C14.54 16.56 14.23 16.63 13.96 16.51C12.62 15.93 11.3 15.04 10.13 13.86C8.95 12.69 8.07 11.38 7.49 10.05C7.36 9.77 7.43 9.45 7.65 9.23L8.47 8.41C9.14 7.74 9.14 6.79 8.56 6.2L7.39 5.03C6.6 4.25 5.34 4.25 4.56 5.03L3.91 5.68C3.16 6.42 2.85 7.49 3.06 8.55C3.55 11.16 5.07 14.03 7.52 16.47C9.97 18.92 12.83 20.44 15.44 20.93C16.5 21.14 17.57 20.83 18.31 20.09L18.96 19.43C19.74 18.65 19.74 17.39 18.96 16.61L17.79 15.43Z" stroke="#453888" stroke-opacity="0" stroke-width="1.500000" stroke-linejoin="round"/>
	<path id="Path" d="M17.79 15.43C17.2 14.85 16.25 14.85 15.67 15.43L14.74 16.35C14.54 16.56 14.23 16.63 13.96 16.51C12.62 15.93 11.3 15.04 10.13 13.86C8.95 12.69 8.07 11.38 7.49 10.05C7.36 9.77 7.43 9.45 7.65 9.23L8.47 8.41C9.14 7.74 9.14 6.79 8.56 6.2L7.39 5.03C6.6 4.25 5.34 4.25 4.56 5.03L3.91 5.68C3.16 6.42 2.85 7.49 3.06 8.55C3.55 11.16 5.07 14.03 7.52 16.47C9.97 18.92 12.83 20.44 15.44 20.93C16.5 21.14 17.57 20.83 18.31 20.09L18.96 19.43C19.74 18.65 19.74 17.39 18.96 16.61L17.79 15.43Z" stroke="#5946D7" stroke-opacity="0" stroke-width="1.500000" stroke-linejoin="round"/>
	<path id="Path" d="M17.79 15.43C17.2 14.85 16.25 14.85 15.67 15.43L14.74 16.35C14.54 16.56 14.23 16.63 13.96 16.51C12.62 15.93 11.3 15.04 10.13 13.86C8.95 12.69 8.07 11.38 7.49 10.05C7.36 9.77 7.43 9.45 7.65 9.23L8.47 8.41C9.14 7.74 9.14 6.79 8.56 6.2L7.39 5.03C6.6 4.25 5.34 4.25 4.56 5.03L3.91 5.68C3.16 6.42 2.85 7.49 3.06 8.55C3.55 11.16 5.07 14.03 7.52 16.47C9.97 18.92 12.83 20.44 15.44 20.93C16.5 21.14 17.57 20.83 18.31 20.09L18.96 19.43C19.74 18.65 19.74 17.39 18.96 16.61L17.79 15.43Z" stroke="#6B59CC" stroke-opacity="1.000000" stroke-width="1.500000" stroke-linejoin="round"/>
	<g opacity="0.500000">
		<path id="Vector" d="M13 6.99C14.03 6.97 15.06 7.35 15.85 8.14C16.64 8.93 17.02 9.96 17 11M21.03 11C21.03 8.94 20.25 6.88 18.68 5.31C17.11 3.74 15.05 2.96 13 2.96" stroke="#2E1066" stroke-opacity="0" stroke-width="1.500000" stroke-linejoin="round"/>
		<path id="Vector" d="M13 6.99C14.03 6.97 15.06 7.35 15.85 8.14C16.64 8.93 17.02 9.96 17 11M21.03 11C21.03 8.94 20.25 6.88 18.68 5.31C17.11 3.74 15.05 2.96 13 2.96" stroke="#410F9E" stroke-opacity="0" stroke-width="1.500000" stroke-linejoin="round"/>
		<path id="Vector" d="M13 6.99C14.03 6.97 15.06 7.35 15.85 8.14C16.64 8.93 17.02 9.96 17 11M21.03 11C21.03 8.94 20.25 6.88 18.68 5.31C17.11 3.74 15.05 2.96 13 2.96" stroke="#453888" stroke-opacity="0" stroke-width="1.500000" stroke-linejoin="round"/>
		<path id="Vector" d="M13 6.99C14.03 6.97 15.06 7.35 15.85 8.14C16.64 8.93 17.02 9.96 17 11M21.03 11C21.03 8.94 20.25 6.88 18.68 5.31C17.11 3.74 15.05 2.96 13 2.96" stroke="#5946D7" stroke-opacity="0" stroke-width="1.500000" stroke-linejoin="round"/>
		<path id="Vector" d="M13 6.99C14.03 6.97 15.06 7.35 15.85 8.14C16.64 8.93 17.02 9.96 17 11M21.03 11C21.03 8.94 20.25 6.88 18.68 5.31C17.11 3.74 15.05 2.96 13 2.96" stroke="#6B59CC" stroke-opacity="1.000000" stroke-width="1.500000" stroke-linejoin="round"/>
	</g>
</svg>
