<svg width="24.000000" height="24.000000" viewBox="0 0 24 24" fill="none" xmlns="http://www.w3.org/2000/svg" xmlns:xlink="http://www.w3.org/1999/xlink">
	<desc>
			Created with Pixso.
	</desc>
	<defs/>
	<rect id="User/User,Profile" rx="-0.500000" width="23.000000" height="23.000000" transform="translate(0.500000 0.500000)" fill="#FFFFFF" fill-opacity="0"/>
	<path id="Vector 27" d="M12 14.5C15.47 14.5 17.46 15.35 18.59 16.21C19.8 17.14 20 18.77 20 20.3C20 21.24 19.24 22 18.3 22L5.69 22C4.75 22 4 21.24 4 20.3C4 18.77 4.19 17.14 5.4 16.21C6.53 15.35 8.52 14.5 12 14.5Z" fill="#5946D7" fill-opacity="0.100000" fill-rule="nonzero"/>
	<path id="Vector 27" d="M12 14.5C8.53 14.5 6.53 15.35 5.4 16.21C4.19 17.14 4 18.77 4 20.3C4 21.24 4.75 22 5.69 22L18.3 22C19.24 22 20 21.24 20 20.3C20 18.77 19.8 17.14 18.59 16.21C17.46 15.35 15.46 14.5 12 14.5Z" stroke="#2E1066" stroke-opacity="0" stroke-width="1.500000" stroke-linejoin="round"/>
	<path id="Vector 27" d="M12 14.5C8.53 14.5 6.53 15.35 5.4 16.21C4.19 17.14 4 18.77 4 20.3C4 21.24 4.75 22 5.69 22L18.3 22C19.24 22 20 21.24 20 20.3C20 18.77 19.8 17.14 18.59 16.21C17.46 15.35 15.46 14.5 12 14.5Z" stroke="#410F9E" stroke-opacity="0" stroke-width="1.500000" stroke-linejoin="round"/>
	<path id="Vector 27" d="M12 14.5C8.53 14.5 6.53 15.35 5.4 16.21C4.19 17.14 4 18.77 4 20.3C4 21.24 4.75 22 5.69 22L18.3 22C19.24 22 20 21.24 20 20.3C20 18.77 19.8 17.14 18.59 16.21C17.46 15.35 15.46 14.5 12 14.5Z" stroke="#453888" stroke-opacity="0" stroke-width="1.500000" stroke-linejoin="round"/>
	<path id="Vector 27" d="M12 14.5C8.53 14.5 6.53 15.35 5.4 16.21C4.19 17.14 4 18.77 4 20.3C4 21.24 4.75 22 5.69 22L18.3 22C19.24 22 20 21.24 20 20.3C20 18.77 19.8 17.14 18.59 16.21C17.46 15.35 15.46 14.5 12 14.5Z" stroke="#5946D7" stroke-opacity="0" stroke-width="1.500000" stroke-linejoin="round"/>
	<path id="Vector 27" d="M12 14.5C8.53 14.5 6.53 15.35 5.4 16.21C4.19 17.14 4 18.77 4 20.3C4 21.24 4.75 22 5.69 22L18.3 22C19.24 22 20 21.24 20 20.3C20 18.77 19.8 17.14 18.59 16.21C17.46 15.35 15.46 14.5 12 14.5Z" stroke="#6B59CC" stroke-opacity="1.000000" stroke-width="1.500000" stroke-linejoin="round"/>
	<circle id="Ellipse 1" cx="12.000000" cy="7.000000" r="4.000000" fill="#5946D7" fill-opacity="0"/>
	<circle id="Ellipse 1" cx="12.000000" cy="7.000000" r="4.000000" stroke="#2E1066" stroke-opacity="0" stroke-width="1.500000"/>
	<circle id="Ellipse 1" cx="12.000000" cy="7.000000" r="4.000000" stroke="#410F9E" stroke-opacity="0" stroke-width="1.500000"/>
	<circle id="Ellipse 1" cx="12.000000" cy="7.000000" r="4.000000" stroke="#453888" stroke-opacity="0" stroke-width="1.500000"/>
	<circle id="Ellipse 1" cx="12.000000" cy="7.000000" r="4.000000" stroke="#5946D7" stroke-opacity="0" stroke-width="1.500000"/>
	<circle id="Ellipse 1" cx="12.000000" cy="7.000000" r="4.000000" stroke="#6B59CC" stroke-opacity="1.000000" stroke-width="1.500000"/>
</svg>
