<?xml version="1.0" encoding="utf-8" ?>
<svg xmlns="http://www.w3.org/2000/svg" xmlns:xlink="http://www.w3.org/1999/xlink" width="1024" height="1024">
	<path fill="#724FC0" d="M305.146 76.5125C301.721 76.5582 298.343 76.2011 295.236 74.6684C292.005 73.0749 289.666 70.4546 288.655 66.9734C287.58 63.2676 287.732 59.112 289.815 55.7856C291.896 52.4623 295.497 50.1952 299.336 49.5137C307.897 47.994 324.701 48.9979 334.108 49.0343Q373.042 49.4005 411.977 49.3145L628.62 49.0459C658.696 49.0724 688.905 48.3305 718.965 48.8824C723.369 48.9633 727.694 49.7043 731.291 52.432C733.692 54.2525 735.411 56.7248 735.745 59.7669C736.16 63.5339 734.734 68.3561 732.323 71.2745C728.755 75.5934 723.214 75.764 718.075 76.1097C689.574 76.7309 660.9 75.0112 632.445 76.174C626.796 75.3793 620.301 75.943 614.577 75.9555Q595.685 76.0984 576.793 75.8971C569.288 73.7248 554.334 76.0974 545.983 76.1334L468.312 75.9823C455.994 75.564 443.586 75.8442 431.256 75.8479C417.64 75.8521 403.969 75.6091 390.363 76.0155C362.054 76.1101 333.411 75.2479 305.146 76.5125Z"/>
	<path fill="#805DCC" d="M632.445 76.174C660.9 75.0112 689.574 76.7309 718.075 76.1097L779.064 154.306L798.475 179.389C802.937 185.143 807.239 191.406 812.59 196.363C771.266 197.742 729.781 195.488 688.474 196.936L688.128 196.707C684.657 190.66 682.001 184.117 679.014 177.818Q670.447 160.101 662.42 142.134L632.445 76.174Z"/>
	<path fill="#805DCC" d="M305.146 76.5125C333.411 75.2479 362.054 76.1101 390.363 76.0155C403.969 75.6091 417.64 75.8521 431.256 75.8479C443.586 75.8442 455.994 75.564 468.312 75.9823C460.493 116.047 455.07 156.556 447.414 196.631C442.018 197.778 417.236 196.831 409.651 196.823L361.898 196.834C353.059 196.838 344.063 197.169 335.247 196.622L335.002 196.83C327.779 195.551 310.337 196.546 302.087 196.545C272.943 196.543 243.577 197.258 214.458 196.297C221.41 187.908 227.847 179.101 234.494 170.471C258.41 139.418 281.122 107.49 305.146 76.5125Z"/>
	<path fill="#FEFEFE" d="M390.363 76.0155C403.969 75.6091 417.64 75.8521 431.256 75.8479C443.586 75.8442 455.994 75.564 468.312 75.9823C460.493 116.047 455.07 156.556 447.414 196.631C442.018 197.778 417.236 196.831 409.651 196.823L361.898 196.834C353.059 196.838 344.063 197.169 335.247 196.622C347.032 175.021 355.856 151.597 366.06 129.216L381.738 95.6C384.726 89.1865 388.099 82.7242 390.363 76.0155Z"/>
	<path fill="#805DCC" d="M468.312 75.9823L545.983 76.1334C554.334 76.0974 569.288 73.7248 576.793 75.8971Q595.685 76.0984 614.577 75.9555C620.301 75.943 626.796 75.3793 632.445 76.174L662.42 142.134Q670.447 160.101 679.014 177.818C682.001 184.117 684.657 190.66 688.128 196.707C682.838 197.805 676.457 197.199 671.033 197.189L642.102 197.117L600.149 197.018C592.385 197.016 584.458 197.374 576.714 196.921C574.273 196.177 451.908 196.31 447.511 196.878L447.414 196.631C455.07 156.556 460.493 116.047 468.312 75.9823Z"/>
	<path fill="#FEFEFE" d="M576.793 75.8971Q595.685 76.0984 614.577 75.9555C620.301 75.943 626.796 75.3793 632.445 76.174L662.42 142.134Q670.447 160.101 679.014 177.818C682.001 184.117 684.657 190.66 688.128 196.707C682.838 197.805 676.457 197.199 671.033 197.189L642.102 197.117L600.149 197.018C592.385 197.016 584.458 197.374 576.714 196.921C575.365 183.22 571.648 167.385 569.219 153.494C564.706 127.683 560.539 101.7 555.433 76.0032L576.793 75.8971Z"/>
	<path fill="#333194" d="M335.002 196.83L335.247 196.622C344.063 197.169 353.059 196.838 361.898 196.834L409.651 196.823C417.236 196.831 442.018 197.778 447.414 196.631L447.511 196.878C451.908 196.31 574.273 196.177 576.714 196.921C584.458 197.374 592.385 197.016 600.149 197.018L642.102 197.117L671.033 197.189C676.457 197.199 682.838 197.805 688.128 196.707L688.474 196.936C729.781 195.488 771.266 197.742 812.59 196.363L814.795 196.865C816.353 198.763 815.828 217.904 815.956 221.749C824.621 230.367 833.031 239.003 841.095 248.191Q844.693 252.303 848.187 256.503Q851.682 260.703 855.073 264.988Q858.463 269.273 861.746 273.641Q865.029 278.008 868.204 282.455Q871.378 286.903 874.442 291.427Q877.506 295.951 880.457 300.549Q883.408 305.148 886.245 309.818Q889.082 314.487 891.802 319.226Q894.523 323.964 897.125 328.769Q899.728 333.573 902.211 338.44Q904.695 343.307 907.057 348.234Q909.419 353.16 911.66 358.144Q913.9 363.128 916.016 368.165Q918.132 373.203 920.124 378.291Q922.115 383.379 923.98 388.515Q925.845 393.65 927.583 398.831Q929.321 404.011 930.93 409.232Q932.539 414.454 934.019 419.714Q935.499 424.973 936.849 430.268Q938.198 435.563 939.417 440.889Q940.635 446.215 941.722 451.57Q942.808 456.925 943.762 462.305Q944.717 467.685 945.538 473.087Q946.359 478.489 947.046 483.909Q947.733 489.33 948.286 494.766Q948.84 500.201 949.259 505.649Q949.678 511.097 949.962 516.554Q950.246 522.01 950.396 527.472Q950.545 532.934 950.56 538.398Q950.575 543.862 950.454 549.324Q950.334 554.787 950.079 560.245Q949.824 565.703 949.434 571.153Q949.054 576.473 948.543 581.782Q948.033 587.091 947.392 592.386Q946.751 597.681 945.98 602.959Q945.209 608.237 944.308 613.494Q943.408 618.751 942.379 623.984Q941.349 629.218 940.192 634.424Q939.034 639.631 937.749 644.807Q936.463 649.983 935.051 655.127Q933.639 660.27 932.101 665.377Q930.563 670.484 928.9 675.552Q927.236 680.62 925.449 685.645Q923.662 690.67 921.752 695.65Q919.841 700.63 917.809 705.561Q915.777 710.492 913.625 715.372Q911.472 720.252 909.2 725.078Q906.928 729.904 904.538 734.672Q902.149 739.44 899.642 744.148Q897.136 748.856 894.515 753.501Q891.894 758.146 889.159 762.726Q886.424 767.305 883.578 771.816Q880.731 776.326 877.775 780.766Q874.819 785.205 871.754 789.57Q868.69 793.936 865.519 798.224Q862.348 802.513 859.072 806.722Q855.797 810.932 852.419 815.06Q849.041 819.187 845.563 823.231Q842.085 827.274 838.508 831.231Q834.931 835.187 831.259 839.055Q827.586 842.923 823.819 846.699Q820.052 850.475 816.194 854.157Q812.335 857.84 808.388 861.426Q804.44 865.013 800.405 868.501Q796.323 872.047 792.156 875.493Q787.988 878.938 783.737 882.28Q779.486 885.621 775.154 888.857Q770.822 892.094 766.412 895.223Q762.002 898.351 757.516 901.371Q753.03 904.39 748.472 907.299Q743.913 910.207 739.285 913.003Q734.656 915.798 729.96 918.479Q725.264 921.16 720.504 923.725Q715.744 926.29 710.922 928.737Q706.1 931.184 701.219 933.512Q696.339 935.84 691.402 938.047Q686.466 940.254 681.477 942.339Q676.488 944.424 671.449 946.386Q666.41 948.349 661.325 950.186Q656.239 952.024 651.11 953.736Q645.981 955.448 640.812 957.034Q635.642 958.619 630.435 960.077Q625.228 961.535 619.987 962.865Q614.746 964.195 609.473 965.396Q604.201 966.596 598.901 967.667Q593.6 968.737 588.276 969.677Q582.951 970.617 577.604 971.426Q572.258 972.235 566.893 972.913Q561.528 973.59 556.149 974.135Q550.769 974.681 545.377 975.094Q539.986 975.507 534.586 975.787Q529.186 976.068 523.781 976.215Q518.375 976.363 512.968 976.378Q507.561 976.392 502.155 976.274Q496.749 976.156 491.347 975.905Q485.946 975.654 480.552 975.271Q475.161 974.896 469.782 974.388Q464.402 973.88 459.037 973.239Q453.671 972.598 448.323 971.824Q442.976 971.051 437.648 970.146Q432.321 969.24 427.018 968.204Q421.715 967.167 416.439 965.999Q411.163 964.832 405.917 963.534Q400.672 962.236 395.46 960.81Q390.249 959.383 385.074 957.827Q379.899 956.272 374.764 954.589Q369.629 952.906 364.537 951.097Q359.446 949.288 354.4 947.354Q349.355 945.419 344.359 943.361Q339.363 941.302 334.419 939.12Q329.475 936.939 324.587 934.636Q319.699 932.333 314.869 929.91Q310.039 927.487 305.271 924.945Q300.503 922.403 295.798 919.744Q291.094 917.085 286.457 914.311Q281.82 911.536 277.254 908.648Q272.687 905.76 268.192 902.759Q263.698 899.759 259.28 896.649Q254.861 893.539 250.521 890.32Q246.18 887.101 241.921 883.776Q237.661 880.451 233.485 877.022Q229.309 873.593 225.22 870.061Q221.13 866.53 217.128 862.898Q213.127 859.267 209.217 855.538Q205.306 851.808 201.489 847.984Q197.672 844.159 193.951 840.241Q190.23 836.323 186.606 832.314Q182.983 828.305 179.46 824.208Q176.727 821.069 174.056 817.879Q171.384 814.688 168.773 811.447Q166.163 808.206 163.615 804.916Q161.067 801.625 158.583 798.286Q156.098 794.948 153.678 791.562Q151.258 788.177 148.903 784.745Q146.548 781.314 144.26 777.839Q141.971 774.363 139.749 770.844Q137.527 767.325 135.373 763.764Q133.219 760.204 131.134 756.602Q129.048 753.001 127.032 749.36Q125.016 745.72 123.07 742.041Q121.124 738.363 119.249 734.647Q117.373 730.932 115.569 727.182Q113.766 723.432 112.034 719.648Q110.302 715.863 108.643 712.047Q106.984 708.23 105.398 704.383Q103.813 700.535 102.301 696.658Q100.789 692.78 99.3523 688.875Q97.9151 684.969 96.5529 681.037Q95.1907 677.104 93.9041 673.147Q92.6174 669.189 91.4068 665.207Q90.1961 661.226 89.0619 657.222Q87.9276 653.218 86.8702 649.193Q85.8129 645.168 84.8327 641.123Q83.8526 637.079 82.95 633.016Q82.0475 628.954 81.2229 624.875Q80.3983 620.796 79.6519 616.701Q78.9055 612.607 78.2376 608.5Q77.5697 604.392 76.9806 600.272Q76.3915 596.153 75.8813 592.022Q75.3711 587.892 74.9401 583.753C72.223 556.538 72.3568 528.505 74.2613 501.236C81.5645 396.664 132.124 289.446 211.554 220.417C211.723 216.077 210.637 199.004 212.292 196.646L214.458 196.297C243.577 197.258 272.943 196.543 302.087 196.545C310.337 196.546 327.779 195.551 335.002 196.83Z"/>
	<path fill="#FEFEFE" d="M494.305 604.134C501.565 603.667 508.762 605.115 514.966 609.023Q515.622 609.445 516.257 609.898Q516.892 610.352 517.504 610.836Q518.116 611.32 518.703 611.834Q519.29 612.347 519.851 612.889Q520.412 613.431 520.946 614Q521.48 614.569 521.986 615.163Q522.491 615.758 522.966 616.376Q523.442 616.995 523.886 617.636Q524.33 618.277 524.743 618.94Q525.155 619.602 525.534 620.284Q525.914 620.966 526.259 621.665Q526.604 622.365 526.915 623.081Q527.225 623.796 527.5 624.526Q527.775 625.257 528.013 625.999Q528.252 626.742 528.454 627.496Q528.656 628.249 528.82 629.012Q528.987 629.772 529.116 630.539Q529.244 631.306 529.335 632.079Q529.425 632.852 529.477 633.628Q529.529 634.404 529.542 635.182Q529.555 635.96 529.529 636.737Q529.503 637.515 529.439 638.29Q529.374 639.065 529.271 639.836Q529.168 640.607 529.027 641.372Q528.885 642.137 528.706 642.894Q528.527 643.651 528.31 644.399Q528.093 645.146 527.839 645.881Q527.586 646.617 527.296 647.338Q527.006 648.06 526.68 648.767Q526.354 649.473 525.994 650.162Q525.633 650.852 525.239 651.522Q524.844 652.193 524.417 652.843C519.292 660.686 512.062 664.96 503.035 666.918C495.247 668.073 487.103 666.622 480.509 662.211C473.433 657.477 468.201 649.367 466.76 640.99Q466.622 640.22 466.524 639.443Q466.425 638.667 466.366 637.887Q466.307 637.106 466.287 636.324Q466.268 635.542 466.287 634.759Q466.307 633.977 466.367 633.197Q466.426 632.416 466.525 631.64Q466.624 630.863 466.762 630.093Q466.899 629.323 467.076 628.56Q467.253 627.798 467.468 627.045Q467.682 626.293 467.935 625.552Q468.188 624.812 468.478 624.085Q468.767 623.358 469.094 622.646Q469.42 621.935 469.781 621.241Q470.143 620.547 470.539 619.872Q470.936 619.197 471.366 618.543Q471.796 617.889 472.258 617.258C477.556 610.032 485.503 605.495 494.305 604.134Z"/>
	<path fill="#333194" d="M494.944 618.118C498.613 617.925 501.791 618.073 505.217 619.627Q505.625 619.817 506.024 620.027Q506.422 620.237 506.809 620.467Q507.196 620.697 507.571 620.947Q507.946 621.196 508.308 621.464Q508.669 621.732 509.017 622.018Q509.365 622.305 509.698 622.608Q510.031 622.911 510.348 623.231Q510.665 623.551 510.965 623.886Q511.266 624.222 511.549 624.572Q511.832 624.922 512.097 625.286Q512.362 625.65 512.608 626.027Q512.854 626.404 513.081 626.793Q513.308 627.182 513.514 627.582Q513.721 627.982 513.907 628.393Q514.094 628.802 514.259 629.221Q514.424 629.64 514.568 630.067C516.149 634.639 515.861 639.548 513.544 643.815C510.845 648.786 506.522 651.387 501.259 652.912Q500.504 653.089 499.736 653.195Q498.968 653.3 498.193 653.332Q497.418 653.365 496.644 653.323Q495.87 653.282 495.103 653.168Q494.336 653.054 493.583 652.868Q492.83 652.682 492.098 652.426Q491.366 652.17 490.662 651.846Q489.958 651.521 489.287 651.132C485.1 648.668 482.128 644.322 481.028 639.62Q480.823 638.734 480.707 637.833Q480.591 636.931 480.567 636.022Q480.542 635.113 480.609 634.207Q480.675 633.3 480.833 632.405Q480.99 631.509 481.236 630.634Q481.483 629.759 481.816 628.913Q482.149 628.067 482.565 627.259Q482.981 626.45 483.476 625.688C486.249 621.377 490.059 619.243 494.944 618.118Z"/>
	<path fill="#FEFEFE" d="M344.989 532.754C346.476 533.414 347.79 534.265 349.085 535.247C374.104 554.213 388.917 582.268 393.005 613.074L361.123 610.591C343.915 609.878 326.513 608.28 309.33 606.991C321.137 582.243 332.693 557.253 344.989 532.754Z"/>
	<path fill="#FEFEFE" d="M384.249 448.729C386.961 450.795 442.933 586.3 449.136 601.756C446.153 606.394 443.834 610.872 442.003 616.079C435.891 615.509 429.747 615.136 423.624 614.675C422.827 614.609 422.094 614.439 421.314 614.268C420.203 610.429 420.468 606.208 419.777 602.278C414.823 574.082 399.04 544.753 378.553 524.778C371.997 518.386 364.7 513.021 357.171 507.856L384.249 448.729Z"/>
	<path fill="#FEFEFE" d="M184.046 763.687L205.913 763.928Q208.506 767.31 211.173 770.635Q213.84 773.959 216.579 777.224Q219.318 780.49 222.128 783.694Q224.938 786.899 227.818 790.041Q230.698 793.183 233.645 796.261Q236.593 799.339 239.607 802.352Q242.622 805.365 245.702 808.312Q248.781 811.258 251.925 814.136Q255.068 817.014 258.274 819.822Q261.48 822.631 264.747 825.368Q268.013 828.106 271.339 830.771Q274.665 833.436 278.048 836.028Q281.432 838.62 284.871 841.137Q288.311 843.654 291.804 846.095Q295.298 848.536 298.844 850.9Q302.391 853.264 305.988 855.55Q309.585 857.835 313.232 860.041Q316.878 862.248 320.572 864.374Q324.266 866.499 328.006 868.544Q331.746 870.588 335.529 872.55Q339.313 874.512 343.139 876.391Q346.964 878.269 350.83 880.064Q354.696 881.858 358.6 883.567Q362.505 885.276 366.446 886.9Q370.386 888.523 374.362 890.059Q378.337 891.596 382.345 893.045Q386.353 894.494 390.392 895.855Q394.431 897.215 398.499 898.487Q402.567 899.759 406.661 900.942Q410.756 902.125 414.876 903.217Q418.995 904.31 423.138 905.312Q427.28 906.314 431.444 907.225C439.787 909.05 448.153 910.933 456.612 912.14C553.904 926.021 659.897 900.846 738.716 841.483Q749.641 833.27 760.036 824.395Q770.43 815.519 780.254 806.016Q790.078 796.513 799.293 786.418Q808.507 776.323 817.078 765.676Q827.366 765.479 837.646 765.909C807.989 805.542 777.457 837.477 736.281 865.505Q732.216 868.265 728.085 870.924Q723.953 873.584 719.758 876.141Q715.562 878.698 711.305 881.151Q707.048 883.604 702.732 885.952Q698.415 888.299 694.043 890.54Q689.67 892.781 685.244 894.914Q680.818 897.046 676.34 899.069Q671.863 901.092 667.337 903.005Q662.811 904.917 658.239 906.718Q653.668 908.519 649.053 910.206Q644.439 911.894 639.784 913.468Q635.13 915.041 630.438 916.5Q625.746 917.959 621.02 919.302Q616.294 920.645 611.536 921.871Q606.778 923.098 601.992 924.207Q597.205 925.316 592.393 926.307Q587.58 927.298 582.745 928.17Q577.91 929.043 573.055 929.796Q568.199 930.549 563.327 931.183Q558.455 931.817 553.568 932.33Q548.682 932.844 543.784 933.237Q538.887 933.631 533.981 933.904Q529.075 934.176 524.164 934.329Q519.253 934.481 514.34 934.512Q509.427 934.543 504.514 934.454Q499.602 934.365 494.693 934.154Q489.784 933.944 484.882 933.613Q479.98 933.282 475.087 932.831Q470.195 932.38 465.315 931.809Q460.435 931.237 455.57 930.546Q450.706 929.855 445.86 929.044Q441.014 928.234 436.189 927.304C335.616 908.075 241.732 848.724 184.046 763.687Z"/>
	<path fill="#805DCC" d="M205.913 763.928C217.202 764.057 228.57 764.299 239.855 764.021C254.964 780.961 270.642 796.565 288.413 810.778Q291.133 812.937 293.893 815.043Q296.654 817.15 299.454 819.204Q302.254 821.257 305.093 823.257Q307.932 825.256 310.809 827.202Q313.685 829.147 316.598 831.037Q319.511 832.927 322.46 834.761Q325.409 836.595 328.392 838.372Q331.375 840.149 334.391 841.87Q337.408 843.59 340.456 845.252Q343.505 846.914 346.585 848.518Q349.665 850.122 352.775 851.667Q355.885 853.212 359.024 854.697Q362.163 856.182 365.329 857.607Q368.496 859.032 371.689 860.396Q374.882 861.76 378.101 863.064Q381.32 864.367 384.563 865.608Q387.806 866.85 391.072 868.029Q394.338 869.208 397.626 870.325Q400.914 871.442 404.222 872.496Q407.531 873.55 410.859 874.54Q414.187 875.531 417.534 876.458Q420.88 877.385 424.244 878.247Q427.607 879.11 430.987 879.909Q434.366 880.707 437.76 881.441Q441.154 882.175 444.562 882.844Q447.969 883.513 451.389 884.117Q454.808 884.721 458.239 885.26Q461.669 885.798 465.109 886.271Q468.549 886.744 471.998 887.151Q475.447 887.558 478.902 887.9Q482.358 888.241 485.819 888.516Q489.281 888.792 492.747 889.001C584.197 894.187 679.297 861.686 747.658 800.516C759.984 789.487 770.648 777.341 782.099 765.481C793.714 765.509 805.481 765.169 817.078 765.676Q808.507 776.323 799.293 786.418Q790.078 796.513 780.254 806.016Q770.43 815.519 760.036 824.395Q749.641 833.27 738.716 841.483C659.897 900.846 553.904 926.021 456.612 912.14C448.153 910.933 439.787 909.05 431.444 907.225Q427.28 906.314 423.138 905.312Q418.995 904.31 414.876 903.217Q410.756 902.125 406.661 900.942Q402.567 899.759 398.499 898.487Q394.431 897.215 390.392 895.855Q386.353 894.494 382.345 893.045Q378.337 891.596 374.362 890.059Q370.386 888.523 366.445 886.9Q362.505 885.276 358.6 883.567Q354.696 881.858 350.83 880.064Q346.964 878.269 343.139 876.391Q339.313 874.512 335.529 872.55Q331.746 870.588 328.006 868.544Q324.266 866.499 320.572 864.374Q316.878 862.248 313.232 860.042Q309.585 857.835 305.988 855.55Q302.391 853.264 298.844 850.9Q295.298 848.536 291.804 846.095Q288.311 843.654 284.871 841.137Q281.432 838.62 278.048 836.028Q274.665 833.436 271.339 830.771Q268.013 828.106 264.747 825.368Q261.48 822.631 258.274 819.822Q255.068 817.014 251.925 814.136Q248.781 811.258 245.702 808.312Q242.622 805.365 239.607 802.352Q236.593 799.339 233.645 796.261Q230.698 793.183 227.818 790.041Q224.938 786.899 222.128 783.694Q219.318 780.49 216.579 777.224Q213.84 773.959 211.173 770.635Q208.506 767.31 205.913 763.928Z"/>
	<path fill="#FEFEFE" d="M786.637 278.296C791.934 274.379 796.648 270.289 801.241 265.565Q804.606 269.156 807.883 272.828Q811.159 276.5 814.344 280.252Q817.529 284.003 820.62 287.832Q823.712 291.661 826.709 295.564Q829.706 299.468 832.606 303.444Q835.505 307.42 838.307 311.466Q841.108 315.512 843.809 319.626Q846.51 323.74 849.109 327.919Q851.708 332.098 854.204 336.339Q856.699 340.581 859.09 344.882Q861.481 349.184 863.765 353.543Q866.049 357.902 868.225 362.316Q870.402 366.729 872.469 371.195Q874.536 375.661 876.493 380.177Q878.449 384.692 880.295 389.255Q882.14 393.817 883.873 398.423Q885.605 403.029 887.224 407.676Q888.843 412.324 890.347 417.009Q891.851 421.695 893.239 426.416Q894.628 431.138 895.9 435.892Q897.172 440.646 898.327 445.43Q899.482 450.213 900.518 455.024Q901.555 459.835 902.474 464.67Q903.392 469.504 904.191 474.36Q904.99 479.216 905.67 484.09Q906.35 488.964 906.909 493.854Q907.469 498.743 907.908 503.644Q908.348 508.546 908.666 513.457Q908.985 518.368 909.183 523.285Q909.381 528.202 909.458 533.123Q909.535 538.043 909.491 542.964Q909.447 547.885 909.282 552.804Q909.173 557.459 908.948 562.11Q908.724 566.76 908.383 571.404Q908.042 576.048 907.586 580.681Q907.129 585.315 906.557 589.936Q905.985 594.557 905.298 599.162Q904.611 603.767 903.81 608.354Q903.008 612.941 902.092 617.506Q901.177 622.071 900.147 626.612Q899.118 631.153 897.976 635.667Q896.834 640.181 895.579 644.665Q894.325 649.149 892.959 653.6Q891.593 658.051 890.116 662.467Q888.64 666.883 887.054 671.261Q885.468 675.638 883.773 679.975Q882.078 684.312 880.276 688.605Q878.473 692.898 876.564 697.145C870.629 710.446 863.766 723.336 856.981 736.218L822.561 736.072C858.093 705.008 873.525 672.993 879.918 626.525C878.593 623.758 878.242 604.679 877.284 599.094C874.787 584.541 870.056 572.363 863.827 559.101C864.087 557.525 864.066 555.879 864.118 554.285Q864.253 550.574 864.31 546.862Q864.368 543.149 864.348 539.436Q864.328 535.724 864.23 532.012Q864.132 528.3 863.957 524.591Q863.783 520.882 863.53 517.178Q863.278 513.474 862.948 509.775Q862.619 506.077 862.212 502.386Q861.806 498.696 861.322 495.014Q860.839 491.333 860.279 487.662Q859.719 483.992 859.082 480.334Q858.445 476.676 857.732 473.032Q857.02 469.388 856.231 465.76Q855.442 462.132 854.578 458.521Q853.714 454.91 852.774 451.317Q851.835 447.725 850.821 444.153Q849.807 440.582 848.718 437.032Q847.63 433.482 846.468 429.956Q845.306 426.429 844.07 422.928Q842.835 419.426 841.526 415.951Q840.218 412.477 838.837 409.03Q837.457 405.583 836.005 402.166Q834.553 398.749 833.03 395.362Q831.506 391.976 829.913 388.622Q828.32 385.269 826.657 381.949Q824.994 378.629 823.262 375.345Q821.53 372.061 819.73 368.813Q817.93 365.566 816.062 362.357Q814.195 359.147 812.261 355.978Q810.327 352.808 808.327 349.68Q806.327 346.551 804.263 343.465Q802.198 340.379 800.07 337.337Q797.942 334.294 795.75 331.297C784.37 315.923 771.328 302.183 758.261 288.271C769.215 286.858 777.106 283.886 786.637 278.296Z"/>
	<path fill="#805DCC" d="M758.261 288.271C769.215 286.858 777.106 283.886 786.637 278.296C800.715 292.758 813.101 308.738 824.454 325.409Q826.514 328.415 828.515 331.46Q830.516 334.505 832.458 337.589Q834.4 340.672 836.282 343.792Q838.165 346.912 839.986 350.068Q841.808 353.224 843.568 356.415Q845.328 359.605 847.026 362.829Q848.725 366.053 850.36 369.309Q851.996 372.566 853.569 375.853Q855.141 379.14 856.65 382.457Q858.159 385.774 859.603 389.119Q861.047 392.465 862.427 395.837Q863.806 399.21 865.12 402.609Q866.435 406.007 867.683 409.431Q868.931 412.854 870.113 416.301Q871.295 419.748 872.41 423.217Q873.525 426.686 874.573 430.177Q875.621 433.667 876.601 437.176Q877.581 440.686 878.493 444.214Q879.406 447.741 880.25 451.286Q881.094 454.831 881.869 458.392Q882.644 461.952 883.351 465.527Q884.057 469.102 884.695 472.689Q885.332 476.277 885.9 479.876Q886.468 483.476 886.966 487.086Q887.464 490.695 887.893 494.314Q888.321 497.932 888.68 501.559Q889.038 505.185 889.326 508.818Q889.615 512.45 889.833 516.087Q890.051 519.725 890.199 523.366Q890.347 527.007 890.424 530.65Q890.502 534.293 890.509 537.937Q890.516 541.581 890.453 545.224Q890.291 560.648 888.787 576Q887.283 591.352 884.448 606.515C883.266 613.091 882.131 620.217 879.918 626.525C878.593 623.758 878.242 604.679 877.284 599.094C874.787 584.541 870.056 572.363 863.827 559.101C864.087 557.525 864.066 555.879 864.118 554.285Q864.253 550.574 864.31 546.862Q864.368 543.149 864.348 539.436Q864.328 535.724 864.23 532.012Q864.132 528.3 863.957 524.591Q863.783 520.882 863.53 517.178Q863.278 513.474 862.948 509.775Q862.619 506.077 862.212 502.386Q861.806 498.696 861.322 495.014Q860.839 491.333 860.279 487.662Q859.719 483.992 859.082 480.334Q858.445 476.676 857.732 473.032Q857.02 469.388 856.231 465.76Q855.442 462.132 854.578 458.521Q853.714 454.91 852.774 451.317Q851.835 447.725 850.821 444.153Q849.807 440.582 848.718 437.032Q847.63 433.482 846.468 429.956Q845.306 426.429 844.07 422.928Q842.835 419.426 841.526 415.951Q840.218 412.477 838.837 409.03Q837.457 405.583 836.005 402.166Q834.553 398.749 833.03 395.362Q831.506 391.976 829.913 388.622Q828.32 385.269 826.657 381.949Q824.994 378.629 823.262 375.345Q821.53 372.061 819.73 368.813Q817.93 365.566 816.062 362.357Q814.195 359.147 812.261 355.978Q810.327 352.808 808.327 349.68Q806.327 346.551 804.263 343.465Q802.198 340.379 800.07 337.337Q797.942 334.294 795.75 331.297C784.37 315.923 771.328 302.183 758.261 288.271Z"/>
	<path fill="#FEFEFE" d="M166.63 736.429C131.036 673.404 113.251 608.932 113.947 536.313C114.899 436.945 153.916 334.437 225.49 264.36C229.286 269.447 232.931 273.33 237.928 277.246C247.173 283.234 253.737 286.684 264.809 288.627C264.842 288.633 264.871 288.653 264.902 288.666C259.032 289.66 229.034 328.98 224.342 335.594Q222.547 338.144 220.796 340.724Q219.046 343.305 217.34 345.916Q215.635 348.526 213.976 351.167Q212.317 353.807 210.704 356.476Q209.092 359.145 207.526 361.841Q205.96 364.538 204.442 367.262Q202.923 369.985 201.453 372.735Q199.982 375.485 198.56 378.26Q197.138 381.035 195.765 383.835Q194.391 386.634 193.067 389.458Q191.743 392.281 190.469 395.127Q189.194 397.973 187.97 400.84Q186.745 403.708 185.571 406.597Q184.397 409.486 183.273 412.395Q182.15 415.303 181.077 418.231Q180.005 421.16 178.984 424.106Q177.963 427.052 176.993 430.016Q176.024 432.98 175.107 435.96Q174.19 438.941 173.325 441.937Q172.46 444.932 171.647 447.943Q170.835 450.954 170.075 453.978Q169.315 457.002 168.609 460.039Q167.902 463.077 167.249 466.126Q166.595 469.175 165.995 472.235Q165.395 475.295 164.849 478.365Q164.303 481.435 163.81 484.514Q163.318 487.593 162.879 490.681Q162.441 493.768 162.056 496.862Q161.672 499.957 161.341 503.058Q161.011 506.158 160.735 509.264Q160.459 512.37 160.238 515.481Q160.016 518.591 159.849 521.705C159.332 531.636 158.751 550.947 160.248 560.036C153.304 577.487 147.722 594.442 146.231 613.287C145.687 620.155 146.825 629.377 145.48 635.758C147.847 646.954 150.193 658.058 153.905 668.9Q154.758 671.38 155.7 673.826Q156.643 676.273 157.673 678.684Q158.704 681.095 159.821 683.467Q160.939 685.839 162.142 688.169Q163.345 690.499 164.632 692.783Q165.919 695.068 167.288 697.304Q168.657 699.541 170.107 701.726Q171.556 703.911 173.084 706.042Q174.612 708.172 176.216 710.246Q177.821 712.32 179.499 714.335Q181.178 716.349 182.929 718.301Q184.68 720.253 186.5 722.14Q188.321 724.027 190.209 725.847Q192.096 727.666 194.049 729.416Q196.002 731.166 198.017 732.844Q200.032 734.522 202.107 736.125Q184.366 735.975 166.63 736.429Z"/>
	<path fill="#805DCC" d="M237.928 277.246C247.173 283.234 253.737 286.684 264.809 288.627C264.842 288.633 264.871 288.653 264.902 288.666C259.032 289.66 229.034 328.98 224.342 335.594Q222.547 338.144 220.796 340.724Q219.046 343.305 217.34 345.916Q215.635 348.526 213.976 351.167Q212.317 353.807 210.704 356.476Q209.092 359.145 207.526 361.841Q205.96 364.538 204.442 367.262Q202.923 369.985 201.453 372.735Q199.982 375.485 198.56 378.26Q197.138 381.035 195.765 383.835Q194.391 386.634 193.067 389.458Q191.743 392.281 190.469 395.127Q189.194 397.973 187.97 400.84Q186.745 403.708 185.571 406.597Q184.397 409.486 183.273 412.395Q182.15 415.303 181.077 418.231Q180.005 421.16 178.984 424.106Q177.963 427.052 176.993 430.016Q176.024 432.98 175.107 435.96Q174.19 438.941 173.325 441.937Q172.46 444.932 171.647 447.943Q170.835 450.954 170.075 453.978Q169.315 457.002 168.609 460.039Q167.902 463.077 167.249 466.126Q166.595 469.175 165.995 472.235Q165.395 475.295 164.849 478.365Q164.303 481.435 163.81 484.514Q163.318 487.593 162.879 490.681Q162.441 493.768 162.056 496.862Q161.672 499.957 161.341 503.058Q161.011 506.158 160.735 509.264Q160.459 512.37 160.238 515.481Q160.016 518.591 159.849 521.705C159.332 531.636 158.751 550.947 160.248 560.036C153.304 577.487 147.722 594.442 146.231 613.287C145.687 620.155 146.825 629.377 145.48 635.758C139.328 614.922 136.135 591.032 134.608 569.358Q134.309 565.453 134.09 561.542Q133.871 557.632 133.732 553.718Q133.594 549.803 133.535 545.887Q133.477 541.971 133.499 538.055Q133.52 534.138 133.623 530.223Q133.725 526.307 133.907 522.395Q134.089 518.483 134.352 514.575Q134.614 510.667 134.957 506.766Q135.3 502.864 135.722 498.97Q136.145 495.076 136.647 491.192Q137.149 487.308 137.731 483.435Q138.312 479.562 138.973 475.701Q139.634 471.841 140.374 467.995Q141.114 464.149 141.933 460.319Q142.752 456.488 143.649 452.676Q144.546 448.863 145.521 445.07Q146.496 441.277 147.548 437.504Q148.601 433.732 149.73 429.982Q150.86 426.231 152.066 422.505Q153.272 418.779 154.555 415.078Q155.837 411.378 157.195 407.704Q158.553 404.03 159.986 400.385Q161.419 396.74 162.927 393.125Q164.434 389.51 166.015 385.927Q167.596 382.344 169.251 378.794Q170.905 375.244 172.632 371.728Q174.359 368.213 176.157 364.734Q177.956 361.254 179.825 357.813Q181.694 354.371 183.634 350.968Q185.573 347.566 187.582 344.204Q189.591 340.842 191.669 337.521Q193.746 334.201 195.891 330.924C208.503 311.812 222.914 294.498 237.928 277.246Z"/>
	<path fill="#FEFEFE" d="M406.27 429.002C433.983 428.364 461.825 428.888 489.551 428.868L656.575 429.076Q612.305 480.204 568.601 531.814C553.931 548.663 538.976 565.53 524.973 582.931C520.685 581.077 516.399 579.492 511.975 578C512.038 573.351 511.321 566.643 512.829 562.319C514.088 561.705 515.35 561.248 516.671 560.797C517.584 559.619 517.505 559.615 517.427 558.111C514.518 556.637 480.288 556.578 476.499 557.805C475.495 558.13 475.867 557.889 475.306 558.886C475.391 559.053 475.459 559.229 475.56 559.387C476.771 561.278 478.609 561.695 480.69 562.094C480.908 562.135 481.127 562.172 481.346 562.211L481.463 578.59C477.903 579.583 474.78 581.025 471.466 582.633C468.073 575.364 465.292 567.744 462.134 560.363L443.504 517.146C431.006 487.858 417.942 458.613 406.27 429.002Z"/>
	<path fill="#FEFEFE" d="M667.213 458.37C670.028 461.306 679.399 489.885 681.414 495.501Q678.14 496.855 674.945 498.387Q671.75 499.918 668.644 501.622Q665.538 503.326 662.53 505.198Q659.522 507.069 656.62 509.103Q653.719 511.136 650.934 513.325Q648.148 515.515 645.487 517.853Q642.825 520.192 640.296 522.673Q637.767 525.153 635.377 527.769C610.47 554.843 597.477 592.684 599.245 629.276C600.814 661.755 613.766 691.826 635.406 715.97C642.097 723.434 649.593 730.186 657.025 736.895C619.277 738.257 581.293 737.476 543.516 737.48L369.728 737.289L363.101 737.05C394.618 710.603 413.899 684.577 419.971 642.421C426.249 642.578 432.541 642.953 438.817 643.213C440.479 652.091 443.125 660.608 447.996 668.286C456.498 681.685 470.734 691.177 486.175 694.531C500.872 697.723 517.447 694.295 529.962 686.034C543.278 677.246 552.606 664.019 555.758 648.325C559.343 630.468 555.533 615.47 545.587 600.491C552.982 591.173 560.982 582.349 568.716 573.314L610.119 525.09C629.259 502.96 647.741 480.2 667.213 458.37Z"/>
	<path fill="#FEFEFE" d="M277.704 511.715C292.257 510.627 307.656 514.809 321.277 519.527C308.795 544.119 297.263 569.254 285.015 593.975C279.963 593.681 274.746 594.202 269.955 595.894Q269.256 596.144 268.571 596.429Q267.885 596.714 267.215 597.032Q266.544 597.351 265.891 597.702Q265.237 598.053 264.601 598.437Q263.966 598.82 263.35 599.235Q262.734 599.649 262.14 600.094Q261.546 600.538 260.974 601.012Q260.402 601.485 259.855 601.987Q259.308 602.488 258.786 603.016Q258.264 603.544 257.769 604.097Q257.274 604.65 256.808 605.227Q256.341 605.804 255.903 606.404Q255.466 607.003 255.058 607.624Q254.651 608.244 254.275 608.884Q253.899 609.524 253.555 610.182Q253.212 610.84 252.901 611.514Q252.577 612.205 252.287 612.911Q251.997 613.617 251.743 614.337Q251.489 615.057 251.272 615.788Q251.054 616.52 250.873 617.261Q250.692 618.003 250.548 618.752Q250.404 619.502 250.298 620.258Q250.191 621.013 250.123 621.774Q250.054 622.534 250.024 623.297Q249.993 624.059 250.001 624.822Q250.008 625.586 250.054 626.347Q250.1 627.109 250.183 627.868Q250.267 628.627 250.388 629.38Q250.509 630.134 250.668 630.88Q250.827 631.627 251.022 632.365Q251.218 633.102 251.45 633.829Q251.683 634.556 251.951 635.271Q252.213 635.984 252.511 636.683Q252.808 637.382 253.14 638.065Q253.472 638.748 253.837 639.414Q254.202 640.08 254.6 640.727Q254.998 641.374 255.428 642Q255.857 642.627 256.317 643.231Q256.778 643.835 257.267 644.416Q257.757 644.996 258.275 645.552Q258.793 646.107 259.338 646.637Q259.882 647.166 260.453 647.667Q261.023 648.169 261.618 648.641Q262.213 649.114 262.83 649.556Q263.448 649.998 264.086 650.409Q264.725 650.82 265.383 651.199Q266.042 651.578 266.718 651.924Q267.394 652.269 268.087 652.581Q268.813 652.908 269.555 653.198Q270.297 653.488 271.053 653.74Q271.809 653.992 272.576 654.206Q273.344 654.419 274.121 654.594Q274.898 654.768 275.683 654.903Q276.468 655.038 277.259 655.133Q278.05 655.228 278.845 655.283Q279.64 655.338 280.436 655.353Q281.233 655.368 282.029 655.342Q282.825 655.316 283.619 655.251Q284.413 655.185 285.202 655.079Q285.992 654.973 286.775 654.827Q287.558 654.681 288.333 654.496Q289.108 654.311 289.872 654.087Q290.637 653.863 291.389 653.601Q292.141 653.338 292.879 653.038C301.299 649.616 307.556 642.756 310.912 634.409C320.576 635.812 330.671 636.01 340.418 636.703Q366.651 638.509 392.851 640.733C387.134 667.655 375.667 690.043 354.681 708.257C337.12 723.365 314.951 733.441 291.77 735.268Q290.459 735.375 289.147 735.449Q287.834 735.523 286.52 735.565Q285.205 735.606 283.891 735.615Q282.576 735.624 281.261 735.6Q279.946 735.576 278.633 735.52Q277.319 735.463 276.007 735.374Q274.695 735.284 273.386 735.163Q272.077 735.041 270.771 734.886Q269.465 734.732 268.164 734.545Q266.862 734.358 265.566 734.139Q264.269 733.92 262.979 733.669Q261.688 733.417 260.404 733.134Q259.12 732.851 257.844 732.535Q256.567 732.22 255.299 731.873Q254.031 731.526 252.771 731.148Q251.512 730.77 250.263 730.36Q249.013 729.951 247.774 729.51Q246.535 729.07 245.308 728.599Q244.08 728.127 242.865 727.626Q241.649 727.124 240.447 726.593Q239.244 726.061 238.055 725.5Q236.866 724.938 235.691 724.347Q234.517 723.757 233.357 723.137Q232.197 722.517 231.054 721.868Q229.91 721.22 228.782 720.543Q227.655 719.866 226.545 719.162Q225.435 718.457 224.342 717.725Q223.25 716.993 222.176 716.234Q221.103 715.475 220.048 714.69Q218.994 713.904 217.959 713.093Q216.924 712.282 215.91 711.445Q214.896 710.608 213.903 709.746Q212.825 708.837 211.769 707.902Q210.713 706.967 209.681 706.006Q208.649 705.045 207.64 704.059Q206.632 703.073 205.649 702.062Q204.665 701.051 203.707 700.016Q202.749 698.982 201.816 697.923Q200.884 696.865 199.978 695.784Q199.072 694.704 198.193 693.601Q197.314 692.498 196.462 691.374Q195.611 690.249 194.787 689.104Q193.964 687.96 193.169 686.795Q192.374 685.63 191.608 684.445Q190.842 683.261 190.105 682.058Q189.369 680.856 188.662 679.635Q187.956 678.414 187.28 677.177Q186.604 675.939 185.958 674.685Q185.313 673.431 184.699 672.161Q184.085 670.892 183.502 669.607Q182.919 668.323 182.369 667.025Q181.818 665.726 181.299 664.415Q180.781 663.103 180.295 661.779Q179.809 660.455 179.356 659.12Q178.903 657.784 178.483 656.438Q178.063 655.092 177.676 653.735Q177.29 652.379 176.937 651.013Q176.584 649.648 176.265 648.274Q175.946 646.901 175.661 645.519Q175.375 644.138 175.125 642.75Q174.874 641.362 174.657 639.969Q174.441 638.575 174.259 637.177Q174.077 635.778 173.929 634.375Q173.782 632.973 173.669 631.567C171.405 601.587 180.579 571.858 200.328 549.079C220.602 525.695 247.161 513.883 277.704 511.715Z"/>
	<path fill="#FEFEFE" d="M737.253 510.711C755.488 509.258 775.998 515.267 791.935 523.8Q793.138 524.438 794.324 525.105Q795.51 525.773 796.68 526.47Q797.849 527.166 799.001 527.891Q800.153 528.617 801.287 529.37Q802.421 530.124 803.536 530.905Q804.65 531.686 805.746 532.495Q806.841 533.304 807.915 534.139Q808.99 534.975 810.044 535.837Q811.098 536.698 812.13 537.586Q813.162 538.473 814.172 539.386Q815.182 540.299 816.169 541.237Q817.156 542.174 818.12 543.136Q819.083 544.097 820.023 545.082Q820.962 546.068 821.877 547.076Q822.792 548.084 823.682 549.114Q824.571 550.144 825.435 551.196Q826.299 552.248 827.137 553.321Q827.975 554.394 828.786 555.488Q829.597 556.581 830.38 557.694Q831.164 558.807 831.92 559.94Q832.676 561.072 833.403 562.222Q834.131 563.373 834.83 564.541Q835.529 565.709 836.199 566.894Q836.869 568.079 837.509 569.28Q838.15 570.481 838.76 571.698Q839.371 572.915 839.951 574.146Q840.531 575.378 841.081 576.623Q841.631 577.869 842.149 579.127Q842.668 580.386 843.156 581.657Q843.643 582.928 844.099 584.211Q844.555 585.493 844.979 586.787Q845.403 588.08 845.795 589.384Q846.197 590.751 846.565 592.128Q846.932 593.504 847.266 594.89Q847.6 596.275 847.899 597.668Q848.199 599.061 848.464 600.461Q848.729 601.861 848.96 603.267Q849.191 604.673 849.386 606.085Q849.582 607.496 849.743 608.912Q849.904 610.328 850.03 611.747Q850.156 613.166 850.248 614.588Q850.339 616.01 850.395 617.434Q850.451 618.858 850.472 620.283Q850.493 621.708 850.478 623.132Q850.464 624.557 850.415 625.981Q850.366 627.405 850.281 628.828Q850.197 630.25 850.077 631.67Q849.958 633.09 849.804 634.507Q849.649 635.923 849.46 637.335Q849.271 638.748 849.047 640.155Q848.823 641.562 848.564 642.963Q848.306 644.365 848.013 645.759Q847.72 647.154 847.393 648.54Q847.065 649.927 846.704 651.306Q846.343 652.684 845.947 654.053Q845.552 655.422 845.123 656.781Q844.694 658.14 844.232 659.488Q843.77 660.835 843.275 662.172Q842.78 663.508 842.252 664.831Q841.724 666.155 841.163 667.465Q840.603 668.775 840.01 670.071Q839.418 671.366 838.793 672.647Q838.169 673.928 837.513 675.193Q836.858 676.458 836.171 677.707Q835.521 678.905 834.841 680.087Q834.161 681.268 833.451 682.432Q832.742 683.596 832.004 684.743Q831.266 685.889 830.5 687.016Q829.733 688.143 828.939 689.251Q828.145 690.359 827.323 691.447Q826.501 692.534 825.652 693.601Q824.804 694.668 823.929 695.714Q823.054 696.759 822.153 697.782Q821.252 698.805 820.326 699.806Q819.4 700.806 818.45 701.783Q817.499 702.76 816.524 703.713Q815.549 704.666 814.551 705.594Q813.553 706.522 812.532 707.426Q811.51 708.329 810.467 709.206Q809.424 710.083 808.359 710.935Q807.294 711.786 806.208 712.61Q805.122 713.434 804.016 714.231Q802.91 715.028 801.785 715.797Q800.659 716.566 799.515 717.307Q798.37 718.047 797.208 718.759Q796.045 719.471 794.865 720.154Q793.685 720.836 792.489 721.489Q791.292 722.142 790.08 722.765Q788.867 723.388 787.639 723.981Q786.412 724.573 785.169 725.135Q783.927 725.697 782.672 726.227Q781.416 726.758 780.147 727.257Q778.879 727.756 777.598 728.223Q776.317 728.69 775.026 729.125Q773.734 729.56 772.431 729.963Q771.129 730.366 769.817 730.736Q768.486 731.111 767.146 731.453Q765.806 731.795 764.458 732.105Q763.11 732.414 761.755 732.69Q760.4 732.966 759.038 733.209Q757.677 733.451 756.31 733.661Q754.943 733.87 753.571 734.046Q752.199 734.222 750.823 734.364Q749.448 734.506 748.069 734.614Q746.69 734.722 745.309 734.797Q743.928 734.871 742.546 734.912Q741.164 734.952 739.781 734.959Q738.398 734.966 737.015 734.938Q735.632 734.911 734.251 734.85Q732.869 734.789 731.489 734.694Q730.11 734.599 728.733 734.47Q727.356 734.341 725.982 734.179Q724.609 734.016 723.24 733.82Q721.871 733.624 720.507 733.395Q719.143 733.165 717.785 732.902Q716.428 732.639 715.077 732.343Q713.726 732.047 712.383 731.718Q711.039 731.388 709.705 731.026Q708.37 730.664 707.044 730.27Q705.719 729.875 704.404 729.448Q703.088 729.021 701.784 728.562Q700.479 728.103 699.186 727.612Q697.893 727.121 696.613 726.598Q695.333 726.075 694.065 725.522Q692.798 724.968 691.545 724.383Q690.291 723.799 689.053 723.183Q687.814 722.568 686.591 721.923Q685.368 721.277 684.161 720.602C656.998 705.276 638.716 680.124 630.422 650.278C624.916 627.581 625.673 604.24 634.091 582.309C644.411 555.423 663.792 533.478 690.252 521.695C700.753 547.493 709.916 573.878 719.679 599.964C715.412 603.487 712.326 607.741 710.531 612.986C707.866 620.775 708.444 629.925 712.117 637.293Q712.443 637.96 712.802 638.609Q713.16 639.259 713.55 639.89Q713.94 640.522 714.361 641.133Q714.781 641.744 715.232 642.334Q715.682 642.924 716.161 643.491Q716.639 644.058 717.146 644.6Q717.652 645.143 718.184 645.66Q718.716 646.177 719.273 646.667Q719.83 647.158 720.411 647.62Q720.991 648.082 721.594 648.515Q722.197 648.948 722.82 649.351Q723.443 649.754 724.085 650.125Q724.727 650.497 725.387 650.837Q726.047 651.176 726.723 651.483Q727.398 651.789 728.088 652.062Q728.778 652.335 729.481 652.574Q730.203 652.817 730.935 653.023Q731.668 653.23 732.41 653.4Q733.152 653.571 733.902 653.704Q734.652 653.837 735.407 653.934Q736.162 654.03 736.922 654.089Q737.681 654.147 738.442 654.168Q739.203 654.189 739.964 654.173Q740.725 654.156 741.485 654.102Q742.244 654.048 743 653.956Q743.756 653.865 744.506 653.736Q745.257 653.607 746 653.441Q746.743 653.275 747.477 653.073Q748.211 652.87 748.934 652.632Q749.657 652.394 750.368 652.12Q751.078 651.846 751.774 651.537Q752.47 651.229 753.15 650.886Q753.833 650.543 754.499 650.166Q755.165 649.79 755.811 649.381Q756.458 648.973 757.083 648.533Q757.709 648.093 758.312 647.623Q758.916 647.153 759.495 646.654Q760.075 646.155 760.629 645.629Q761.184 645.102 761.712 644.548Q762.24 643.995 762.74 643.417Q763.24 642.838 763.711 642.235Q764.182 641.633 764.623 641.008Q765.064 640.383 765.474 639.738Q765.884 639.092 766.261 638.427Q766.639 637.762 766.984 637.079Q767.328 636.397 767.639 635.698Q767.95 634.999 768.226 634.286Q768.502 633.573 768.743 632.847Q768.985 632.084 769.19 631.31Q769.394 630.536 769.561 629.754Q769.727 628.971 769.855 628.181Q769.983 627.39 770.072 626.595Q770.161 625.799 770.211 625.001Q770.26 624.202 770.271 623.401Q770.282 622.601 770.253 621.801Q770.224 621.001 770.156 620.204Q770.089 619.406 769.982 618.613Q769.875 617.82 769.729 617.033Q769.584 616.246 769.4 615.467Q769.216 614.688 768.994 613.919Q768.772 613.15 768.512 612.393Q768.253 611.635 767.956 610.892Q767.66 610.148 767.328 609.42Q766.996 608.692 766.628 607.981C762.19 599.519 754.73 595.13 745.899 592.298C740.329 578.353 735.48 564.054 730.371 549.93C726.007 537.863 721.199 525.754 717.631 513.428C724.13 512.041 730.634 511.235 737.253 510.711Z"/>
	<path fill="#FEFEFE" d="M239.855 764.021L577.901 764.484L715.962 764.708C737.914 764.851 760.189 764.278 782.099 765.481C770.648 777.341 759.984 789.487 747.658 800.516C679.297 861.686 584.197 894.187 492.747 889.001Q489.281 888.792 485.819 888.516Q482.358 888.241 478.902 887.9Q475.447 887.558 471.998 887.151Q468.549 886.744 465.109 886.271Q461.669 885.798 458.239 885.259Q454.808 884.721 451.389 884.117Q447.969 883.513 444.562 882.844Q441.154 882.175 437.76 881.441Q434.366 880.707 430.987 879.909Q427.607 879.11 424.244 878.247Q420.88 877.385 417.534 876.458Q414.187 875.531 410.859 874.54Q407.531 873.55 404.222 872.496Q400.914 871.442 397.626 870.325Q394.338 869.208 391.072 868.029Q387.806 866.85 384.563 865.608Q381.32 864.367 378.101 863.064Q374.882 861.76 371.689 860.396Q368.496 859.032 365.329 857.607Q362.163 856.182 359.024 854.697Q355.885 853.212 352.775 851.667Q349.665 850.122 346.585 848.518Q343.505 846.914 340.456 845.252Q337.408 843.59 334.391 841.87Q331.375 840.15 328.392 838.372Q325.409 836.595 322.46 834.761Q319.511 832.927 316.598 831.037Q313.685 829.147 310.809 827.202Q307.932 825.256 305.093 823.257Q302.254 821.257 299.454 819.203Q296.654 817.15 293.893 815.043Q291.133 812.937 288.413 810.778C270.642 796.565 254.964 780.961 239.855 764.021Z"/>
	<path fill="#FEFEFE" d="M335.002 196.83L335.247 196.622C344.063 197.169 353.059 196.838 361.898 196.834L409.651 196.823C417.236 196.831 442.018 197.778 447.414 196.631L447.511 196.878C451.908 196.31 574.273 196.177 576.714 196.921C584.458 197.374 592.385 197.016 600.149 197.018L642.102 197.117L671.033 197.189C676.457 197.199 682.838 197.805 688.128 196.707L688.474 196.936L688.94 228.07C688.978 231.133 689.445 234.405 689.332 237.423C692.551 254.088 701.124 269.082 715.345 278.72C727.063 286.661 744.2 290.965 758.261 288.271C771.328 302.183 784.37 315.923 795.75 331.297Q797.942 334.294 800.07 337.337Q802.198 340.379 804.263 343.465Q806.327 346.551 808.327 349.68Q810.327 352.808 812.261 355.978Q814.195 359.147 816.062 362.357Q817.93 365.566 819.73 368.813Q821.53 372.061 823.262 375.345Q824.994 378.629 826.657 381.949Q828.32 385.269 829.913 388.622Q831.506 391.976 833.03 395.362Q834.553 398.749 836.005 402.166Q837.457 405.583 838.837 409.03Q840.218 412.477 841.526 415.951Q842.835 419.426 844.07 422.928Q845.306 426.429 846.468 429.955Q847.63 433.482 848.718 437.032Q849.807 440.582 850.821 444.153Q851.835 447.725 852.774 451.317Q853.714 454.91 854.578 458.521Q855.442 462.132 856.231 465.76Q857.02 469.388 857.732 473.032Q858.445 476.676 859.082 480.334Q859.719 483.992 860.279 487.662Q860.839 491.333 861.322 495.014Q861.806 498.696 862.213 502.386Q862.619 506.077 862.949 509.775Q863.278 513.474 863.53 517.178Q863.783 520.882 863.957 524.591Q864.132 528.3 864.23 532.012Q864.328 535.724 864.348 539.436Q864.368 543.149 864.31 546.862Q864.253 550.574 864.118 554.285C864.066 555.879 864.087 557.525 863.827 559.101C844.354 524.255 816.691 499.082 777.56 487.998C754.708 481.526 731.106 481.653 708.059 486.878Q693.663 449.511 677.993 412.66Q671.448 397.25 665.118 381.75C662.963 376.521 660.528 371.311 658.728 365.952L716.348 366.081C724.531 366.101 733.813 364.952 741.816 366.35C744.636 366.843 747.289 368.347 749.353 370.304C752.955 373.719 755.243 378.635 755.333 383.615C755.424 388.64 753.367 393.896 749.707 397.377C740.088 406.522 720.156 397.263 719.369 416.431C719.229 419.838 720.376 422.944 722.794 425.364C726.457 429.03 731.598 430.347 736.653 430.207Q737.817 430.185 738.978 430.104Q740.139 430.023 741.294 429.885Q742.45 429.746 743.597 429.55Q744.744 429.353 745.88 429.1Q747.016 428.846 748.137 428.536Q749.259 428.226 750.364 427.86Q751.469 427.495 752.554 427.074Q753.639 426.653 754.702 426.179Q755.764 425.705 756.802 425.178Q757.84 424.651 758.849 424.072Q759.859 423.494 760.839 422.866Q761.819 422.238 762.766 421.562Q763.713 420.885 764.625 420.162Q765.537 419.439 766.412 418.672Q767.287 417.904 768.122 417.094Q768.957 416.283 769.751 415.432C778.098 406.458 783.03 394.015 782.444 381.713C781.856 369.348 776.457 357.216 767.202 348.923C761.483 343.797 754.068 340.074 746.512 338.643C740.179 337.443 733.016 337.935 726.562 337.936L697.36 337.96L657.472 337.954C650.061 337.944 642.497 337.638 635.108 338.101C631.426 338.331 628.794 339.192 626.272 342.065C623.834 344.841 622.718 347.957 623.081 351.638C623.842 359.349 639.613 392.144 643.599 401.852L394.122 401.91C387.939 387.475 381.347 373.201 375.393 358.669Q391.676 354.429 408.092 350.737C414.249 349.306 421.717 348.408 427.368 345.543Q428.163 345.145 428.89 344.632Q429.617 344.12 430.259 343.505Q430.902 342.89 431.445 342.186Q431.989 341.482 432.421 340.705C434.135 337.607 434.386 333.836 433.344 330.477C432.326 327.198 430.059 324.29 426.994 322.7C425.276 321.809 423.477 321.402 421.556 321.274C400.743 319.888 379.596 320.143 358.725 319.471L307.176 318.143C296.061 317.784 284.722 316.917 273.626 316.938C272.335 316.94 270.979 317.083 269.759 317.531C268.449 318.013 267.551 318.843 267.071 320.162C266.245 322.435 266.256 325.438 267.3 327.64C270.435 334.256 301.923 356.395 310.126 361.375Q312.717 362.948 315.473 364.209Q318.229 365.47 321.113 366.401C330.909 369.493 339.452 368.101 349.118 365.168Q359.35 389.53 370.096 413.67Q352.165 454.454 333.036 494.691C295.875 481.677 258.728 480.717 222.53 498.084C193.883 511.827 175.301 532.651 160.248 560.036C158.751 550.947 159.332 531.636 159.849 521.705Q160.016 518.591 160.238 515.481Q160.459 512.37 160.735 509.264Q161.011 506.158 161.341 503.058Q161.672 499.957 162.056 496.862Q162.441 493.768 162.879 490.681Q163.318 487.593 163.81 484.514Q164.303 481.435 164.849 478.365Q165.395 475.295 165.995 472.235Q166.595 469.175 167.249 466.126Q167.902 463.077 168.609 460.039Q169.315 457.002 170.075 453.978Q170.835 450.954 171.647 447.943Q172.46 444.932 173.325 441.937Q174.19 438.941 175.107 435.96Q176.024 432.98 176.993 430.016Q177.963 427.052 178.984 424.106Q180.005 421.16 181.077 418.231Q182.15 415.303 183.273 412.395Q184.397 409.486 185.571 406.597Q186.745 403.708 187.97 400.84Q189.194 397.973 190.469 395.127Q191.743 392.281 193.067 389.458Q194.391 386.634 195.765 383.835Q197.138 381.035 198.56 378.26Q199.982 375.485 201.453 372.735Q202.923 369.985 204.442 367.262Q205.96 364.538 207.526 361.841Q209.092 359.145 210.704 356.476Q212.317 353.807 213.976 351.167Q215.635 348.526 217.34 345.916Q219.046 343.305 220.796 340.724Q222.547 338.144 224.342 335.594C229.034 328.98 259.032 289.66 264.902 288.666C279.908 291.032 294.908 288.134 307.609 279.652C322.129 269.955 330.655 255.74 334.08 238.821C333.903 235.023 334.572 230.812 334.647 226.943C334.84 216.906 334.74 206.866 335.002 196.83Z"/>
	<path fill="#C0B1E5" d="M688.128 196.707L688.474 196.936L688.94 228.07C688.978 231.133 689.445 234.405 689.332 237.423C689.229 237.649 689.122 237.874 689.023 238.103C687.118 242.502 686.629 248.227 685.077 252.921C680.682 266.215 668.522 278.149 655.799 283.587Q654.492 284.153 653.159 284.653Q651.826 285.154 650.47 285.588Q649.114 286.022 647.738 286.389Q646.363 286.756 644.97 287.054Q643.578 287.353 642.173 287.582Q640.768 287.812 639.353 287.972Q637.938 288.132 636.517 288.222Q635.096 288.312 633.672 288.331Q632.249 288.351 630.826 288.301Q629.403 288.251 627.984 288.13Q626.565 288.01 625.154 287.82Q623.743 287.629 622.343 287.37Q620.943 287.11 619.558 286.782Q618.172 286.454 616.804 286.057Q615.437 285.661 614.09 285.198Q612.744 284.735 611.422 284.206Q610.18 283.716 608.965 283.165Q607.749 282.614 606.562 282.003Q605.375 281.393 604.22 280.724Q603.065 280.056 601.944 279.331Q600.824 278.605 599.74 277.826Q598.657 277.046 597.614 276.214Q596.571 275.381 595.57 274.498Q594.569 273.615 593.613 272.683Q592.657 271.751 591.749 270.773Q590.841 269.796 589.982 268.774Q589.123 267.752 588.316 266.689Q587.509 265.626 586.755 264.524Q586.002 263.422 585.304 262.285Q584.606 261.147 583.966 259.976Q583.325 258.805 582.743 257.604Q582.161 256.403 581.64 255.174C579.493 250.126 577.869 244.646 576.989 239.23C576.323 238.56 576.654 238.684 576.17 238.556C577.592 224.987 577.22 210.557 576.714 196.921C584.458 197.374 592.385 197.016 600.149 197.018L642.102 197.117L671.033 197.189C676.457 197.199 682.838 197.805 688.128 196.707Z"/>
	<path fill="#C0B1E5" d="M335.002 196.83L335.247 196.622C344.063 197.169 353.059 196.838 361.898 196.834L409.651 196.823C417.236 196.831 442.018 197.778 447.414 196.631L447.511 196.878C447.006 209.946 446.754 223.822 447.854 236.849C447.747 237.051 447.635 237.251 447.532 237.456C445.897 240.716 446.125 246.015 444.885 249.692Q444.634 250.452 444.363 251.204Q444.091 251.956 443.799 252.701Q443.506 253.446 443.193 254.182Q442.88 254.918 442.547 255.645Q442.213 256.372 441.86 257.09Q441.506 257.807 441.133 258.515Q440.76 259.222 440.367 259.919Q439.974 260.616 439.562 261.301Q439.15 261.987 438.719 262.661Q438.287 263.335 437.838 263.996Q437.388 264.658 436.92 265.307Q436.453 265.956 435.967 266.591Q435.481 267.227 434.978 267.849Q434.475 268.47 433.954 269.078Q433.434 269.685 432.897 270.278Q432.36 270.871 431.807 271.449Q431.253 272.027 430.684 272.589Q430.115 273.151 429.53 273.697Q428.946 274.243 428.346 274.772Q427.746 275.302 427.132 275.814Q426.518 276.327 425.89 276.822Q425.262 277.318 424.621 277.795Q423.979 278.273 423.324 278.733Q422.67 279.192 422.002 279.634Q421.335 280.075 420.656 280.497Q419.977 280.92 419.286 281.323Q418.595 281.727 417.894 282.111Q417.192 282.495 416.48 282.86Q415.768 283.224 415.046 283.568Q414.324 283.913 413.592 284.237Q412.861 284.561 412.121 284.865Q411.381 285.169 410.633 285.452C396.738 290.556 380.019 289.368 366.691 283.124Q365.431 282.541 364.202 281.895Q362.973 281.25 361.778 280.543Q360.584 279.836 359.426 279.07Q358.268 278.304 357.15 277.481Q356.032 276.658 354.957 275.779Q353.882 274.901 352.853 273.97Q351.823 273.038 350.842 272.056Q349.861 271.074 348.93 270.044Q348 269.014 347.122 267.939Q346.244 266.863 345.422 265.745Q344.599 264.626 343.834 263.468Q343.069 262.31 342.363 261.115Q341.657 259.919 341.012 258.69Q340.367 257.461 339.785 256.2Q339.203 254.94 338.685 253.652Q338.167 252.364 337.714 251.052C336.445 247.482 335.441 243.809 334.522 240.135C334.324 239.343 334.418 239.665 334.08 238.821C333.903 235.023 334.572 230.812 334.647 226.943C334.84 216.906 334.74 206.866 335.002 196.83Z"/>
	<path fill="#333194" d="M447.511 196.878C451.908 196.31 574.273 196.177 576.714 196.921C577.22 210.557 577.592 224.987 576.17 238.556Q575.601 241.461 574.757 244.298Q573.913 247.136 572.802 249.879Q571.69 252.623 570.322 255.248Q568.953 257.873 567.34 260.355Q566.488 261.654 565.574 262.909Q564.66 264.165 563.686 265.375Q562.711 266.584 561.679 267.745Q560.647 268.906 559.559 270.014Q558.472 271.123 557.332 272.178Q556.191 273.232 555.001 274.23Q553.81 275.228 552.573 276.166Q551.335 277.104 550.053 277.981Q548.771 278.858 547.448 279.672Q546.125 280.485 544.763 281.233Q543.402 281.981 542.006 282.661Q540.61 283.342 539.182 283.953Q537.754 284.565 536.298 285.106Q534.843 285.647 533.362 286.117Q531.882 286.586 530.38 286.983Q528.878 287.38 527.359 287.703C509.218 291.447 489.036 288.466 473.566 278.044C458.703 268.031 451.251 254.1 447.854 236.849C446.754 223.822 447.006 209.946 447.511 196.878Z"/>
</svg>
