<?xml version="1.0" encoding="utf-8"?>
<!-- Generator: Adobe Illustrator 26.0.3, SVG Export Plug-In . SVG Version: 6.00 Build 0)  -->
<svg version="1.1" id="Layer_1" xmlns="http://www.w3.org/2000/svg" xmlns:xlink="http://www.w3.org/1999/xlink" x="0px" y="0px"
	 viewBox="0 0 100 100" style="enable-background:new 0 0 100 100;" xml:space="preserve">
<style type="text/css">
	.st0{fill:none;stroke:#5946D7;stroke-width:3;}
	.st1{display:none;}
	.st2{display:inline;}
</style>
<g id="Layer_1_00000091009149645755466100000001410415988522115772_">
	<g>
		<path class="st0" d="M72.4,25.3c-0.1,3.6,9.1,3,9.1,3s5.1-0.7,5.3-5.5c0.2-7.3-6.5-8.4-6.5-8.4H61.8c0,0-1.7,0.2-2.2,2.1
			s0.2,3.4,0.2,3.4l3.8,8.8H39.2l-0.8-1.4h-7.8l3.3,5.8L14.8,66.6H53l15.4-25.8l9.7,25.3l5.6-2L66.8,19.9L80,20v2.5
			c0,0.2-0.2,0.4-0.4,0.3C78.1,22.7,72.5,22.4,72.4,25.3z M23.7,61.5l12.4-21.4l9.8,21.4H23.7z"/>
		<polygon class="st0" points="38.4,33.2 50.5,60.7 66.5,33.2 		"/>
	</g>
	<path class="st0" d="M24.8,26.7h19.4c0,0,5.6-1.2,1.7-5.1c-1.7-1.7-10-5.1-14.2-5.1s-6.4,2-7.5,4.8s0,5.3,0,5.3h0.6
		C24.8,26.6,24.8,26.7,24.8,26.7z"/>
</g>
<g id="Layer_2_00000057120769929951163290000003386788770271857594_" class="st1">
	<g class="st2">
		<circle class="st0" cx="20.4" cy="64.1" r="18.7"/>
		<circle class="st0" cx="20.4" cy="64.3" r="14.3"/>
		<line class="st0" x1="34.7" y1="64.3" x2="6.1" y2="64.3"/>
		<line class="st0" x1="20.4" y1="50" x2="20.4" y2="78.7"/>
		<line class="st0" x1="7.7" y1="71.2" x2="33" y2="57.5"/>
		<line class="st0" x1="8" y1="57.3" x2="32.9" y2="71.2"/>
		<line class="st0" x1="13" y1="76.4" x2="27.9" y2="52.1"/>
		<line class="st0" x1="27.9" y1="76.4" x2="12.9" y2="52.1"/>
	</g>
	<g class="st2">
		<circle class="st0" cx="80.4" cy="64.1" r="18.7"/>
		<circle class="st0" cx="80.4" cy="64.3" r="14.3"/>
		<line class="st0" x1="94.6" y1="64.3" x2="66.1" y2="64.3"/>
		<line class="st0" x1="80.4" y1="50" x2="80.4" y2="78.7"/>
		<line class="st0" x1="67.7" y1="71.2" x2="93" y2="57.5"/>
		<line class="st0" x1="67.9" y1="57.3" x2="92.8" y2="71.2"/>
		<line class="st0" x1="73" y1="76.4" x2="87.9" y2="52.1"/>
		<line class="st0" x1="87.8" y1="76.4" x2="72.9" y2="52.1"/>
	</g>
</g>
<g id="Layer_3">
	<path class="st0" d="M28.4,53.3c2.5,2.1,4.3,5,4.9,8.2 M33.5,66.6c-1.1,6.9-7,12.1-14.2,12.1C11.4,78.7,5,72.3,5,64.3
		S11.4,50,19.3,50c1.6,0,3.1,0.2,4.5,0.7 M26,46.8c-2.1-0.8-4.3-1.2-6.6-1.2C9.1,45.7,0.7,54,0.7,64.3S9.1,83,19.4,83
		C29,83,36.8,75.8,38,66.5 M30.7,49.4c3.8,2.9,6.5,7.2,7.2,12.1"/>
	<line class="st0" x1="19.3" y1="78.7" x2="19.3" y2="66.6"/>
	<line class="st0" x1="19.3" y1="58.6" x2="19.3" y2="50"/>
	<line class="st0" x1="29.5" y1="74.5" x2="21.6" y2="66.6"/>
	<line class="st0" x1="17.3" y1="62.3" x2="9.2" y2="54.2"/>
	<line class="st0" x1="16.1" y1="64.3" x2="5" y2="64.3"/>
	<line class="st0" x1="29.5" y1="54.2" x2="25.8" y2="57.9"/>
	<line class="st0" x1="17.1" y1="66.6" x2="9.2" y2="74.5"/>
</g>
<g id="Layer_3_copy">
	<path class="st0" d="M78.3,50.1c0.3,0,1.6-0.1,2-0.1c7.9,0,14.3,6.4,14.3,14.3s-6.4,14.3-14.3,14.3S66,72.3,66,64.3
		c0-5.5,3.1-10.2,7.6-12.6 M76.7,45.8c0.9-0.1,2.8-0.2,3.7-0.2c10.3,0,18.7,8.4,18.7,18.7S90.7,83,80.4,83s-18.7-8.4-18.7-18.7
		c0-7.3,4.2-13.6,10.3-16.7"/>
	<line class="st0" x1="80.3" y1="78.7" x2="80.3" y2="65.7"/>
	<line class="st0" x1="80.3" y1="55.3" x2="80.3" y2="50"/>
	<line class="st0" x1="90.5" y1="74.5" x2="81.3" y2="65.3"/>
	<line class="st0" x1="75.6" y1="59.6" x2="70.2" y2="54.2"/>
	<line class="st0" x1="94.7" y1="64.3" x2="82.9" y2="64.3"/>
	<line class="st0" x1="77.4" y1="64.3" x2="66" y2="64.3"/>
	<line class="st0" x1="90.5" y1="54.2" x2="82.9" y2="62"/>
	<line class="st0" x1="78.9" y1="65.7" x2="70.2" y2="74.5"/>
</g>
</svg>
