<svg width="24.000000" height="24.000000" viewBox="0 0 24 24" fill="none" xmlns="http://www.w3.org/2000/svg" xmlns:xlink="http://www.w3.org/1999/xlink">
	<desc>
			Created with Pixso.
	</desc>
	<defs/>
	<rect id="Interface, Essential/Settings, Filter" rx="-0.500000" width="23.000000" height="23.000000" transform="translate(0.500000 0.500000)" fill="#FFFFFF" fill-opacity="0"/>
	<path id="Path" d="M21 17L17 17" stroke="#7A7680" stroke-opacity="1.000000" stroke-width="1.500000" stroke-linejoin="round" stroke-linecap="round"/>
	<path id="Path" d="M11 17L3 17" stroke="#7A7680" stroke-opacity="1.000000" stroke-width="1.500000" stroke-linejoin="round" stroke-linecap="round"/>
	<path id="Path" d="M16.12 19.12C14.94 20.29 13.05 20.29 11.87 19.12C10.7 17.94 10.7 16.05 11.87 14.87C13.05 13.7 14.94 13.7 16.12 14.87C17.29 16.05 17.29 17.94 16.12 19.12Z" stroke="#7A7680" stroke-opacity="1.000000" stroke-width="1.500000" stroke-linejoin="round"/>
	<path id="Path" d="M3 7L7 7" stroke="#7A7680" stroke-opacity="1.000000" stroke-width="1.500000" stroke-linejoin="round" stroke-linecap="round"/>
	<path id="Path" d="M12.12 9.12C10.94 10.29 9.05 10.29 7.87 9.12C6.7 7.94 6.7 6.05 7.87 4.87C9.05 3.7 10.94 3.7 12.12 4.87C13.29 6.05 13.29 7.94 12.12 9.12Z" stroke="#7A7680" stroke-opacity="1.000000" stroke-width="1.500000" stroke-linejoin="round"/>
	<path id="Path" d="M13 7L21 7" stroke="#7A7680" stroke-opacity="1.000000" stroke-width="1.500000" stroke-linejoin="round" stroke-linecap="round"/>
</svg>
