<svg width="12.000000" height="12.000000" viewBox="0 0 12 12" fill="none" xmlns="http://www.w3.org/2000/svg" xmlns:xlink="http://www.w3.org/1999/xlink">
	<desc>
			Created with Pixso.
	</desc>
	<defs>
		<clipPath id="clip117_37111">
			<rect id="General / rate-full" rx="-0.500000" width="11.000000" height="11.000000" transform="translate(0.500000 0.500000)" fill="white" fill-opacity="0"/>
		</clipPath>
	</defs>
	<rect id="General / rate-full" rx="-0.500000" width="11.000000" height="11.000000" transform="translate(0.500000 0.500000)" fill="#FFFFFF" fill-opacity="0"/>
	<g clip-path="url(#clip117_37111)">
		<path id="Rate Full" d="M6.71 0.58L8.21 3.76L11.29 4.08C11.45 4.1 11.59 4.16 11.71 4.26C11.83 4.36 11.92 4.49 11.97 4.64C12.01 4.79 12.01 4.95 11.97 5.1C11.92 5.25 11.83 5.38 11.71 5.48L9.25 7.5L10.01 10.89C10.05 11.04 10.03 11.2 9.98 11.35C9.92 11.49 9.83 11.62 9.7 11.71C9.58 11.8 9.43 11.85 9.27 11.85C9.12 11.86 8.97 11.82 8.83 11.74L6 10.01L3.15 11.74C3.02 11.82 2.87 11.86 2.71 11.85C2.56 11.85 2.41 11.79 2.28 11.7C2.16 11.61 2.06 11.49 2.01 11.34C1.95 11.2 1.94 11.04 1.97 10.89L2.74 7.5L0.28 5.48C0.16 5.38 0.07 5.25 0.03 5.1C-0.02 4.95 -0.02 4.79 0.02 4.64C0.07 4.49 0.16 4.36 0.28 4.26C0.4 4.16 0.55 4.1 0.7 4.09L3.78 3.76L5.28 0.58C5.35 0.45 5.45 0.34 5.57 0.26C5.7 0.18 5.85 0.13 6 0.13C6.14 0.13 6.29 0.18 6.42 0.26C6.54 0.34 6.64 0.45 6.71 0.58Z" fill="#C5C3C8" fill-opacity="1.000000" fill-rule="nonzero"/>
		<mask id="mask117_37113" mask-type="alpha" maskUnits="userSpaceOnUse" x="-0.003418" y="0.139526" width="12.009506" height="11.718836">
			<path id="Rate Full" d="M6.71 0.58L8.21 3.76L11.29 4.08C11.45 4.1 11.59 4.16 11.71 4.26C11.83 4.36 11.92 4.49 11.97 4.64C12.01 4.79 12.01 4.95 11.97 5.1C11.92 5.25 11.83 5.38 11.71 5.48L9.25 7.5L10.01 10.89C10.05 11.04 10.03 11.2 9.98 11.35C9.92 11.49 9.83 11.62 9.7 11.71C9.58 11.8 9.43 11.85 9.27 11.85C9.12 11.86 8.97 11.82 8.83 11.74L6 10.01L3.15 11.74C3.02 11.82 2.87 11.86 2.71 11.85C2.56 11.85 2.41 11.79 2.28 11.7C2.16 11.61 2.06 11.49 2.01 11.34C1.95 11.2 1.94 11.04 1.97 10.89L2.74 7.5L0.28 5.48C0.16 5.38 0.07 5.25 0.03 5.1C-0.02 4.95 -0.02 4.79 0.02 4.64C0.07 4.49 0.16 4.36 0.28 4.26C0.4 4.16 0.55 4.1 0.7 4.09L3.78 3.76L5.28 0.58C5.35 0.45 5.45 0.34 5.57 0.26C5.7 0.18 5.85 0.13 6 0.13C6.14 0.13 6.29 0.18 6.42 0.26C6.54 0.34 6.64 0.45 6.71 0.58Z" fill="#FF9431" fill-opacity="1.000000" fill-rule="nonzero"/>
		</mask>
		<g mask="url(#mask117_37113)">
			<rect id="Rectangle 3909" x="6.000000" width="6.000000" height="12.000000" fill="#C5C3C8" fill-opacity="1.000000"/>
		</g>
	</g>
</svg>
