<svg width="12.009766" height="11.718842" viewBox="0 0 12.0098 11.7188" fill="none" xmlns="http://www.w3.org/2000/svg" xmlns:xlink="http://www.w3.org/1999/xlink">
	<desc>
			Created with Pixso.
	</desc>
	<defs/>
	<path id="Rate Full" d="M6.71 0.45L8.21 3.62L11.29 3.94C11.45 3.96 11.6 4.02 11.72 4.12C11.84 4.22 11.93 4.35 11.97 4.5C12.02 4.65 12.02 4.81 11.97 4.96C11.92 5.11 11.83 5.24 11.71 5.34L9.26 7.36L10.02 10.75C10.05 10.9 10.04 11.06 9.98 11.21C9.93 11.35 9.83 11.48 9.71 11.57C9.58 11.66 9.43 11.71 9.28 11.71C9.12 11.72 8.97 11.68 8.84 11.6L6 9.87L3.16 11.6C3.02 11.68 2.87 11.72 2.72 11.71C2.56 11.71 2.41 11.65 2.29 11.56C2.16 11.47 2.07 11.35 2.01 11.21C1.96 11.06 1.94 10.9 1.98 10.75L2.74 7.36L0.29 5.34C0.16 5.24 0.08 5.11 0.03 4.96C-0.02 4.81 -0.02 4.65 0.03 4.5C0.07 4.35 0.16 4.22 0.28 4.12C0.4 4.02 0.55 3.96 0.7 3.95L3.78 3.62L5.29 0.45C5.35 0.31 5.45 0.2 5.58 0.12C5.7 0.04 5.85 0 6 0C6.15 0 6.29 0.04 6.42 0.12C6.55 0.2 6.65 0.31 6.71 0.45Z" fill="#FF9431" fill-opacity="1.000000" fill-rule="nonzero"/>
</svg>
